junction_bold.sfdir

StartChar: exclam
Encoding: 33 33 74
Width: 297
Flags: MW
HStem: -7 142 798 20G<69 221 221 221>
VStem: 63 163 78 132
LayerCount: 2
Fore
SplineSet
208 195 m 1
 82 195 l 1
 69 818 l 1
 221 818 l 1
 208 195 l 1
58 71 m 0
 58 115 96 148 147 148 c 0
 196 148 233 115 233 71 c 0
 233 27 196 -7 147 -7 c 0
 96 -7 58 27 58 71 c 0
EndSplineSet
EndChar

StartChar: quotedbl
Encoding: 34 34 78
Width: 381
Flags: MW
HStem: 500 21G 628 142
VStem: 21 168 184 168
LayerCount: 2
Fore
SplineSet
204 699 m 0
 204 740 239 769 286 769 c 0
 347 769 372 727 372 673 c 0
 371 618 339 558 287 493 c 1
 209 540 l 1
 237 574 249 599 258 632 c 1
 223 641 204 666 204 699 c 0
1 699 m 0
 1 740 36 769 83 769 c 0
 144 769 169 727 169 673 c 0
 168 618 136 558 84 493 c 1
 6 540 l 1
 34 574 46 599 55 632 c 1
 20 641 1 666 1 699 c 0
EndSplineSet
EndChar

StartChar: numbersign
Encoding: 35 35 88
Width: 828
Flags: MW
HStem: -1 21G 228 105<41 174 17 198 326 412 41 301 564 716> 465 105<70 257 94 232 384 470 94 360 623 768> 750 20G<307 434 434 434 545 672 672 672>
LayerCount: 2
Fore
SplineSet
70 465 m 1
 94 570 l 1
 257 570 l 1
 272 634 292 708 307 770 c 1
 434 770 l 1
 384 570 l 1
 495 570 l 1
 510 634 530 708 545 770 c 1
 672 770 l 1
 623 570 l 1
 792 570 l 1
 768 465 l 1
 598 465 l 1
 585 415 577 385 564 333 c 1
 740 333 l 1
 716 228 l 1
 540 228 l 1
 523 155 501 71 483 0 c 1
 357 0 l 1
 412 228 l 1
 301 228 l 1
 284 155 262 71 245 0 c 1
 118 0 l 1
 174 228 l 1
 17 228 l 1
 41 333 l 1
 198 333 l 1
 211 382 219 413 232 465 c 1
 70 465 l 1
360 465 m 1
 326 333 l 1
 437 333 l 1
 449 382 458 413 470 465 c 1
 360 465 l 1
EndSplineSet
EndChar

StartChar: dollar
Encoding: 36 36 69
Width: 623
Flags: MW
HStem: -66 21G 818 20G
VStem: 62 137 257 118 460 137
LayerCount: 2
Fore
SplineSet
250 -64 m 1
 250 -10 l 1
 158 9 87 57 30 148 c 1
 128 235 l 1
 169 168 212 125 250 108 c 1
 250 355 l 1
 146 392 59 440 61 564 c 0
 64 718 169 768 250 781 c 1
 250 839 l 1
 372 839 l 1
 372 779 l 1
 441 765 490 732 538 675 c 1
 446 596 l 1
 417 626 392 649 372 659 c 1
 372 444 l 1
 480 406 581 349 581 213 c 0
 581 79 488 6 372 -12 c 1
 372 -64 l 1
 250 -64 l 1
442 213 m 0
 442 265 412 294 372 314 c 1
 372 105 l 1
 411 121 442 158 442 213 c 0
200 563 m 0
 199 528 220 505 250 488 c 1
 250 660 l 1
 226 647 202 618 200 563 c 0
EndSplineSet
EndChar

StartChar: percent
Encoding: 37 37 85
Width: 1006
Flags: MW
HStem: -46 21G -7 90 343 87 689 90 792 20G<701 854 854 854>
VStem: 42 129 332 129 528 130 818 129
LayerCount: 2
Fore
SplineSet
12 561 m 1
 13 729 125 778 221 779 c 1
 319 779 431 731 431 559 c 1
 430 391 318 343 222 343 c 0
 126 343 12 392 12 561 c 1
701 812 m 1
 854 812 l 1
 278 -45 l 1
 124 -45 l 1
 701 812 l 1
221 679 m 1
 185 678 151 659 151 561 c 0
 151 462 186 442 222 442 c 0
 258 442 292 461 293 559 c 1
 293 660 258 679 221 679 c 1
553 204 m 1
 554 372 665 420 761 421 c 1
 860 421 971 374 971 202 c 1
 970 33 859 -14 762 -14 c 0
 666 -14 553 34 553 204 c 1
761 322 m 1
 725 320 691 302 691 204 c 0
 691 105 726 85 762 85 c 0
 799 85 832 104 833 202 c 1
 833 303 799 322 761 322 c 1
EndSplineSet
EndChar

StartChar: ampersand
Encoding: 38 38 67
Width: 889
Flags: MW
HStem: -7 117 677 93
VStem: 41 137<172.5 239.5 172.5 259> 112 137<581.5 626.5 581.5 662> 432 137<573.5 626.5>
LayerCount: 2
Fore
SplineSet
41 209 m 0xe8
 41 309 114 373 202 424 c 1
 149 485 112 541 112 596 c 0xd8
 112 728 234 770 342 770 c 0
 451 770 569 728 569 596 c 0
 569 512 486 456 392 406 c 1
 433 360 471 319 525 263 c 1
 540 290 551 314 565 343 c 0
 572 359 590 395 598 411 c 1
 707 357 l 1
 678 297 l 2
 658 257 640 214 613 172 c 1
 655 132 669 122 673 119 c 0
 688 107 706 115 732 174 c 1
 836 115 l 1
 781 -11 720 -12 675 -5 c 0
 647 0 598 27 540 77 c 1
 486 27 415 -7 309 -7 c 0
 199 -7 41 51 41 209 c 0xe8
292 330 m 1
 277 345 l 1
 221 312 178 270 178 209 c 0
 178 136 273 107 309 107 c 0
 370 108 415 129 452 162 c 1
 395 219 340 277 292 330 c 1
432 596 m 0
 432 657 385 675 342 675 c 0
 298 675 249 657 249 596 c 0xd8
 249 567 276 532 318 485 c 1
 380 517 432 551 432 596 c 0
EndSplineSet
EndChar

StartChar: quotesingle
Encoding: 39 39 82
Width: 210
Flags: MW
HStem: 500 21G 750 20G<77.5 131.5>
VStem: 18 168
LayerCount: 2
Fore
SplineSet
19 699 m 0
 19 740 54 770 101 770 c 0
 162 770 187 728 187 674 c 0
 186 619 154 559 102 494 c 1
 24 541 l 1
 52 575 64 600 73 633 c 1
 38 642 19 667 19 699 c 0
EndSplineSet
EndChar

StartChar: parenleft
Encoding: 40 40 75
Width: 341
Flags: MW
HStem: -250 21G 750 20G
VStem: 35 137<203 317.5 203 331>
LayerCount: 2
Fore
SplineSet
321 773 m 1
 329 675 l 1
 202 630 172 375 172 260 c 0
 172 146 202 -110 329 -153 c 1
 321 -252 l 1
 94 -228 35 117 35 260 c 0
 35 402 95 754 321 773 c 1
EndSplineSet
EndChar

StartChar: parenright
Encoding: 41 41 77
Width: 341
Flags: MW
HStem: -250 21G 750 20G
VStem: 162 137<203 317.5>
LayerCount: 2
Fore
SplineSet
5 675 m 1
 13 773 l 1
 239 754 299 402 299 260 c 0
 299 117 240 -228 13 -252 c 1
 5 -153 l 1
 132 -110 162 146 162 260 c 0
 162 375 132 630 5 675 c 1
EndSplineSet
EndChar

StartChar: asterisk
Encoding: 42 42 91
Width: 621
Flags: MW
HStem: 263 21G 750 20G<242 366 366 366>
VStem: 243 122
LayerCount: 2
Fore
SplineSet
24 550 m 1
 62 649 l 1
 244 576 l 1
 244 638 242 711 242 770 c 1
 366 770 l 1
 364 577 l 1
 546 649 l 1
 584 550 l 1
 392 475 l 1
 525 328 l 1
 431 249 l 1
 304 407 l 1
 177 250 l 1
 81 327 l 1
 214 476 l 1
 24 550 l 1
EndSplineSet
EndChar

StartChar: plus
Encoding: 43 43 83
Width: 653
Flags: MW
HStem: -1 21G 231 100<29 254 29 254 375 610> 540 20G<254 375 375 375>
VStem: 254 121<0 231 331 560>
LayerCount: 2
Fore
SplineSet
375 0 m 1
 254 0 l 1
 254 231 l 1
 29 231 l 1
 29 331 l 1
 254 331 l 1
 254 560 l 1
 375 560 l 1
 375 331 l 1
 610 331 l 1
 610 231 l 1
 375 231 l 1
 375 0 l 1
EndSplineSet
EndChar

StartChar: comma
Encoding: 44 44 22
Width: 205
Flags: MW
HStem: -134 21G 115 20G<72.5 126.5>
VStem: 14 168<48.5 66 12 85.5>
LayerCount: 2
Fore
SplineSet
14 65 m 0
 14 106 49 135 96 135 c 0
 157 135 182 93 182 39 c 0
 182 -15 149 -76 97 -141 c 1
 19 -94 l 1
 47 -60 60 -34 68 -2 c 1
 33 8 14 32 14 65 c 0
EndSplineSet
EndChar

StartChar: hyphen
Encoding: 45 45 27
Width: 349
Flags: MW
HStem: 229 103<30 312 30 312>
LayerCount: 2
Fore
SplineSet
312 332 m 1
 312 229 l 1
 30 229 l 1
 30 332 l 1
 312 332 l 1
EndSplineSet
EndChar

StartChar: period
Encoding: 46 46 21
Width: 210
Flags: MW
HStem: -7 142
VStem: 20 163
LayerCount: 2
Fore
SplineSet
24 69 m 0
 24 111 54 141 105 141 c 0
 152 141 182 111 182 69 c 0
 182 25 152 -7 105 -7 c 0
 54 -7 24 25 24 69 c 0
EndSplineSet
EndChar

StartChar: slash
Encoding: 47 47 73
Width: 357
Flags: MW
HStem: -249 21G 750 20G<222 359 359 359>
LayerCount: 2
Fore
SplineSet
222 770 m 1
 359 770 l 1
 128 0 l 1
 -9 0 l 1
 222 770 l 1
EndSplineSet
EndChar

StartChar: zero
Encoding: 48 48 57
Width: 615
Flags: MW
HStem: -10 106 479 107
VStem: 9 137 398 137
LayerCount: 2
Fore
SplineSet
38 284 m 0
 38 513 175 582 301 582 c 0
 427 582 564 513 564 284 c 0
 564 55 427 -14 301 -14 c 0
 175 -14 38 55 38 284 c 0
427 284 m 0
 427 431 362 476 301 476 c 0
 240 476 175 431 175 284 c 0
 175 137 240 92 301 92 c 0
 362 92 427 137 427 284 c 0
EndSplineSet
Substitution2: "'lnum' Lining Figures in Latin lookup 1 subtable" zero.lnum
Substitution2: "'aalt' Access All Alternates in Latin lookup 0 subtable" zero.lnum
EndChar

StartChar: one
Encoding: 49 49 58
Width: 368
Flags: MW
HStem: -1 21G 555 20G<177 303 303 303>
VStem: 161 135
LayerCount: 2
Fore
SplineSet
303 0 m 1
 161 0 l 1
 161 412 l 1
 102 362 l 1
 20 456 l 1
 177 575 l 1
 303 575 l 1
 303 0 l 1
EndSplineSet
Substitution2: "'lnum' Lining Figures in Latin lookup 1 subtable" one.lnum
Substitution2: "'aalt' Access All Alternates in Latin lookup 0 subtable" one.lnum
EndChar

StartChar: two
Encoding: 50 50 59
Width: 541
Flags: MW
HStem: 0 106 474 112
VStem: 323 138
LayerCount: 2
Fore
SplineSet
142 393 m 1
 125 359 l 1
 125 359 36 448 36 456 c 1
 67 508 134 585 255 586 c 1
 382 586 465 519 465 395 c 0
 465 294 337 174 248 109 c 1
 497 109 l 1
 497 0 l 1
 27 0 l 1
 27 97 l 1
 29 97 314 294 327 395 c 1
 333 451 293 477 254 476 c 1
 183 476 142 393 142 393 c 1
EndSplineSet
Substitution2: "'lnum' Lining Figures in Latin lookup 1 subtable" two.lnum
Substitution2: "'aalt' Access All Alternates in Latin lookup 0 subtable" two.lnum
EndChar

StartChar: three
Encoding: 51 51 60
Width: 548
Flags: MW
HStem: -205 114 473 113
VStem: 278 135 361 138
LayerCount: 2
Fore
SplineSet
114 386 m 1xd0
 31 468 l 1
 31 468 92 585 228 585 c 0
 329 585 417 516 417 417 c 0
 417 367 386 323 350 290 c 1
 432 263 497 192 500 102 c 1
 500 -102 323 -194 199 -194 c 1
 95 -195 7 -118 7 -118 c 1
 91 -39 l 1
 91 -39 141 -84 198 -82 c 1
 264 -82 364 -26 364 102 c 0
 364 152 324 199 278 199 c 0xe0
 193 199 122 176 115 175 c 1
 115 269 l 1
 203 302 282 347 282 417 c 0
 282 452 256 474 229 474 c 0
 161 474 114 386 114 386 c 1xd0
EndSplineSet
Substitution2: "'lnum' Lining Figures in Latin lookup 1 subtable" three.lnum
Substitution2: "'aalt' Access All Alternates in Latin lookup 0 subtable" three.lnum
EndChar

StartChar: four
Encoding: 52 52 61
Width: 626
Flags: MW
HStem: -206 21G 0 106 555 20G
VStem: 362 134
LayerCount: 2
Fore
SplineSet
603 109 m 1
 603 0 l 1
 503 0 l 1
 503 -194 l 1
 361 -194 l 1
 361 0 l 1
 14 0 l 1
 14 66 l 1
 399 576 l 1
 503 576 l 1
 503 109 l 1
 603 109 l 1
361 331 m 1
 197 109 l 1
 361 109 l 1
 361 331 l 1
EndSplineSet
Substitution2: "'lnum' Lining Figures in Latin lookup 1 subtable" four.lnum
Substitution2: "'aalt' Access All Alternates in Latin lookup 0 subtable" four.lnum
EndChar

StartChar: five
Encoding: 53 53 62
Width: 601
Flags: MW
HStem: -205 114 193 141 229 105 466 109
VStem: 75 134 411 139
LayerCount: 2
Fore
SplineSet
208 467 m 1
 208 327 l 1
 228 333 254 337 285 337 c 0
 457 337 547 238 547 105 c 0
 547 -109 431 -194 275 -194 c 0
 135 -194 44 -94 44 -94 c 1
 120 -3 l 1
 120 -3 205 -88 275 -88 c 0
 350 -88 412 -32 412 103 c 0
 412 160 372 232 285 232 c 0
 249 232 191 216 171 177 c 1
 67 177 l 1
 67 575 l 1
 492 575 l 1
 492 467 l 1
 208 467 l 1
EndSplineSet
Substitution2: "'lnum' Lining Figures in Latin lookup 1 subtable" five.lnum
Substitution2: "'aalt' Access All Alternates in Latin lookup 0 subtable" five.lnum
EndChar

StartChar: six
Encoding: 54 54 63
Width: 613
Flags: MW
HStem: -7 107 381 107 675 109
VStem: 43 134 435 137
LayerCount: 2
Fore
SplineSet
334 476 m 0
 456 476 562 415 562 244 c 0
 562 149 502 -14 311 -14 c 0
 140 -14 42 115 42 346 c 0
 42 571 167 765 340 765 c 0
 436 765 520 700 538 687 c 1
 456 601 l 1
 456 601 395 654 344 654 c 0
 245 654 197 527 181 415 c 1
 232 461 287 476 334 476 c 0
311 91 m 0
 398 91 426 189 426 244 c 0
 426 338 383 369 334 369 c 0
 292 369 237 339 185 231 c 1
 203 140 248 91 311 91 c 0
EndSplineSet
Substitution2: "'lnum' Lining Figures in Latin lookup 1 subtable" six.lnum
Substitution2: "'aalt' Access All Alternates in Latin lookup 0 subtable" six.lnum
EndChar

StartChar: seven
Encoding: 55 55 64
Width: 511
Flags: MW
HStem: -206 21G 462 113
LayerCount: 2
Fore
SplineSet
23 460 m 1
 23 576 l 1
 492 576 l 1
 492 499 l 1
 415 336 163 -142 60 -187 c 1
 -24 -111 l 1
 41 -71 232 268 328 460 c 1
 23 460 l 1
EndSplineSet
Substitution2: "'lnum' Lining Figures in Latin lookup 1 subtable" seven.lnum
Substitution2: "'aalt' Access All Alternates in Latin lookup 0 subtable" seven.lnum
EndChar

StartChar: eight
Encoding: 56 56 66
Width: 587
Flags: MW
HStem: 683 97
VStem: 33 138 375 138 394 138
LayerCount: 2
Fore
SplineSet
514 591 m 0xe0
 514 497 436 427 378 387 c 1
 460 327 532 260 532 174 c 0xd0
 532 -24 300 -14 286 -14 c 0
 273 -14 42 -21 42 174 c 1
 43 268 117 345 180 390 c 1
 114 447 60 514 60 591 c 0
 60 722 179 765 286 765 c 0
 393 765 514 722 514 591 c 0xe0
396 174 m 0
 396 223 340 273 268 326 c 1
 226 294 183 240 177 173 c 1
 179 89 280 89 286 89 c 0
 293 89 396 85 396 174 c 0
196 591 m 0
 196 539 238 496 286 455 c 1
 322 478 377 525 377 591 c 0
 377 651 330 667 286 667 c 0
 243 667 196 651 196 591 c 0
EndSplineSet
Substitution2: "'lnum' Lining Figures in Latin lookup 1 subtable" eight.lnum
Substitution2: "'aalt' Access All Alternates in Latin lookup 0 subtable" eight.lnum
EndChar

StartChar: nine
Encoding: 57 57 65
Width: 613
Flags: MW
HStem: -205 110 91 107 479 107
VStem: 40 137 435 134
LayerCount: 2
Fore
SplineSet
265 85 m 0
 144 85 38 145 38 316 c 0
 38 412 98 575 288 575 c 0
 460 575 558 445 558 214 c 0
 558 -10 432 -205 260 -205 c 0
 164 -205 80 -140 62 -127 c 1
 144 -41 l 1
 144 -41 205 -93 256 -93 c 0
 355 -93 403 33 419 146 c 1
 367 99 313 85 265 85 c 0
288 469 m 0
 202 469 174 372 174 316 c 0
 174 222 217 192 265 192 c 0
 307 192 363 221 415 330 c 1
 397 420 351 469 288 469 c 0
EndSplineSet
Substitution2: "'lnum' Lining Figures in Latin lookup 1 subtable" nine.lnum
Substitution2: "'aalt' Access All Alternates in Latin lookup 0 subtable" nine.lnum
EndChar

StartChar: colon
Encoding: 58 58 23
Width: 260
Flags: MW
HStem: -7 142 342 142
VStem: 46 163
LayerCount: 2
Fore
SplineSet
43 69 m 0
 43 111 78 141 129 141 c 0
 177 141 212 111 212 69 c 0
 212 25 177 -7 129 -7 c 0
 78 -7 43 25 43 69 c 0
43 412 m 0
 43 454 78 484 129 484 c 0
 177 484 212 454 212 412 c 0
 212 368 177 336 129 336 c 0
 78 336 43 368 43 412 c 0
EndSplineSet
EndChar

StartChar: semicolon
Encoding: 59 59 24
Width: 265
Flags: MW
HStem: -134 21G 342 142
VStem: 46 169
LayerCount: 2
Fore
SplineSet
48 65 m 0
 48 106 83 135 130 135 c 0
 191 135 217 93 217 39 c 0
 216 -15 183 -76 131 -141 c 1
 53 -94 l 1
 81 -60 94 -34 102 -2 c 1
 67 8 48 32 48 65 c 0
43 412 m 0
 43 454 78 484 129 484 c 0
 177 484 212 454 212 412 c 0
 212 368 177 336 129 336 c 0
 78 336 43 368 43 412 c 0
EndSplineSet
EndChar

StartChar: less
Encoding: 60 60 89
Width: 703
Flags: MW
HStem: -8 21G 557 20G
LayerCount: 2
Fore
SplineSet
53 242 m 1
 53 328 l 1
 639 593 l 1
 639 481 l 1
 205 285 l 1
 346 221 500 151 639 89 c 1
 639 -23 l 1
 53 242 l 1
EndSplineSet
EndChar

StartChar: equal
Encoding: 61 61 86
Width: 664
Flags: MW
HStem: 160 100<34 616 34 616> 313 100<34 616 34 616>
LayerCount: 2
Fore
SplineSet
616 413 m 1
 616 313 l 1
 34 313 l 1
 34 413 l 1
 616 413 l 1
616 260 m 1
 616 160 l 1
 34 160 l 1
 34 260 l 1
 616 260 l 1
EndSplineSet
EndChar

StartChar: greater
Encoding: 62 62 90
Width: 703
Flags: MW
HStem: -8 21G 557 20G
LayerCount: 2
Fore
SplineSet
634 328 m 1
 634 242 l 1
 48 -23 l 1
 48 89 l 1
 482 285 l 1
 341 349 187 419 48 481 c 1
 48 593 l 1
 634 328 l 1
EndSplineSet
EndChar

StartChar: question
Encoding: 63 63 25
Width: 507
Flags: MW
HStem: -7 142<223.5 270.5> 715 103<217.5 296.5>
VStem: 130 131<287 308 287 330.5> 165 163<44.5 85.5> 345 138<629 644.5>
LayerCount: 2
Fore
SplineSet
299 237 m 1xe8
 207 163 l 1
 161 205 130 241 130 298 c 0
 130 363 178 413 239 467 c 1
 287 512 342 568 345 629 c 1
 345 660 337 715 256 715 c 0
 179 715 106 577 106 577 c 1
 16 663 l 1
 16 663 102 818 256 818 c 0
 451 818 483 698 483 628 c 0
 483 520 400 448 327 383 c 0
 291 350 261 319 261 297 c 0
 261 277 275 260 299 237 c 1xe8
165 65 m 0xd8
 165 106 200 135 247 135 c 0
 294 135 328 106 328 65 c 0
 328 24 294 -7 247 -7 c 0
 200 -7 165 24 165 65 c 0xd8
EndSplineSet
EndChar

StartChar: at
Encoding: 64 64 72
Width: 1065
Flags: MW
HStem: -188 113<444.5 587 444.5 604> 18 93 495 93 658 112<444.5 647>
VStem: 38 134<167.5 367 167.5 397.5> 258 134<183 296.5 183 324.5> 869 134<349 422>
LayerCount: 2
Fore
SplineSet
416 18 m 0
 304 19 258 98 258 214 c 0
 258 435 433 588 550 588 c 0
 615 588 657 557 667 527 c 1
 671 541 676 561 676 561 c 1
 790 525 l 1
 790 525 710 114 710 110 c 1
 746 118 877 183 869 349 c 1
 869 495 752 658 542 658 c 0
 347 658 172 467 172 267 c 0
 172 68 347 -75 542 -75 c 0
 632 -75 702 -71 823 35 c 1
 898 -59 l 1
 749 -187 666 -188 542 -188 c 0
 275 -188 38 5 38 267 c 0
 38 528 275 770 542 770 c 0
 838 770 1003 553 1003 350 c 0
 1003 75 744 18 666 18 c 0
 612 18 585 37 578 71 c 1
 532 40 478 18 416 18 c 0
392 214 m 0
 392 152 400 118 418 117 c 0
 497 115 580 214 606 251 c 1
 617 299 630 355 641 404 c 1
 608 483 579 490 550 490 c 0
 486 490 392 379 392 214 c 0
EndSplineSet
EndChar

StartChar: A
Encoding: 65 65 30
Width: 713
Flags: MW
HStem: -1 21G 250 108<276 420 276 459 236 420> 750 20G<282 415 415 415>
LayerCount: 2
Fore
SplineSet
282 770 m 1
 415 770 l 1
 699 0 l 1
 552 0 l 1
 459 250 l 1
 236 250 l 1
 146 0 l 1
 -2 0 l 1
 282 770 l 1
420 358 m 1
 348 550 l 1
 276 358 l 1
 420 358 l 1
EndSplineSet
EndChar

StartChar: B
Encoding: 66 66 31
Width: 640
Flags: MW
HStem: -11 114 16 20G 341 103 666 114
VStem: 91 141 447 137
LayerCount: 2
Fore
SplineSet
296 775 m 0
 447 775 547 724 556 550 c 1
 555 482 528 434 491 401 c 1
 568 353 588 276 588 234 c 0
 588 172 588 -3 308 0 c 1
 62 0 l 1
 62 756 l 1
 127 762 l 1
 170 768 229 775 296 775 c 0
203 334 m 1
 203 109 l 1
 308 109 l 2
 447 109 449 190 449 234 c 0
 449 261 435 334 320 334 c 2
 203 334 l 1
418 553 m 1
 416 637 379 661 331 665 c 0
 318 666 306 667 294 667 c 0
 263 667 233 665 203 661 c 1
 203 443 l 1
 244 443 l 2
 340 443 412 452 418 553 c 1
EndSplineSet
EndChar

StartChar: D
Encoding: 68 68 29
Width: 717
Flags: MW
HStem: -11 118 16 20G 661 119
VStem: 63 141<109 660 109 755 109 755> 541 141
LayerCount: 2
Fore
SplineSet
63 0 m 1
 63 755 l 1
 172 768 225 775 289 775 c 0
 480 775 663 717 663 380 c 0
 663 138 528 0 335 0 c 2
 63 0 l 1
521 380 m 0
 521 550 472 667 291 667 c 0
 254 667 224 663 204 660 c 1
 204 109 l 1
 335 109 l 2
 441 109 521 211 521 380 c 0
EndSplineSet
EndChar

StartChar: E
Encoding: 69 69 36
Width: 565
Flags: MW
HStem: 0 118 343 109 652 118 755 20G
VStem: 61 141
LayerCount: 2
Fore
SplineSet
535 0 m 1xd8
 62 0 l 1
 62 770 l 1
 393 770 l 2xe8
 453 770 522 779 522 779 c 1
 522 662 l 1
 203 662 l 1
 203 453 l 1
 474 453 l 1
 474 344 l 1
 203 344 l 1
 203 109 l 1
 407 109 l 2
 467 109 535 117 535 117 c 1
 535 0 l 1xd8
EndSplineSet
EndChar

StartChar: F
Encoding: 70 70 37
Width: 543
Flags: MW
HStem: -1 21G 343 109 652 118 755 20G
VStem: 61 141<0 344 453 663>
LayerCount: 2
Fore
SplineSet
202 0 m 1xd8
 61 0 l 1
 61 770 l 1
 393 770 l 2xe8
 453 770 522 779 522 779 c 1
 522 663 l 1
 202 663 l 1
 202 453 l 1
 474 453 l 1
 474 344 l 1
 202 344 l 1
 202 0 l 1xd8
EndSplineSet
EndChar

StartChar: I
Encoding: 73 73 39
Width: 261
Flags: MW
HStem: -1 21G 750 20G<57 199 199 199>
VStem: 57 142<0 770>
LayerCount: 2
Fore
SplineSet
199 0 m 1
 57 0 l 1
 57 770 l 1
 199 770 l 1
 199 0 l 1
EndSplineSet
EndChar

StartChar: J
Encoding: 74 74 40
Width: 327
Flags: MW
HStem: -248 21G 750 20G<124 265 265 265>
VStem: 84 141
LayerCount: 2
Fore
SplineSet
124 770 m 1
 265 770 l 1
 265 2 l 2
 265 -161 129 -228 46 -254 c 1
 1 -143 l 1
 61 -126 124 -84 124 2 c 2
 124 770 l 1
EndSplineSet
EndChar

StartChar: K
Encoding: 75 75 42
Width: 617
Flags: MW
HStem: -1 21G 750 20G<63 204 204 204 411 578 578 578>
VStem: 63 141<0 326 504 770>
LayerCount: 2
Fore
SplineSet
63 770 m 1
 204 770 l 1
 204 504 l 1
 411 770 l 1
 578 770 l 1
 303 417 l 1
 330 408 358 391 380 368 c 0
 408 337 444 276 485 211 c 0
 531 136 580 56 627 0 c 1
 467 0 l 1
 434 35 394 104 354 170 c 0
 321 226 290 277 283 287 c 0
 261 314 236 326 211 326 c 2
 204 326 l 1
 204 0 l 1
 63 0 l 1
 63 770 l 1
EndSplineSet
EndChar

StartChar: L
Encoding: 76 76 43
Width: 560
Flags: MW
HStem: 0 118 750 20G<62 203 203 203>
VStem: 62 141<109 770 109 770 109 770>
LayerCount: 2
Fore
SplineSet
62 0 m 1
 62 770 l 1
 203 770 l 1
 203 109 l 1
 407 109 l 2
 467 109 535 117 535 117 c 1
 535 0 l 1
 62 0 l 1
EndSplineSet
EndChar

StartChar: M
Encoding: 77 77 44
Width: 854
Flags: MW
HStem: -1 21G 750 20G<64 199 199 199 636 771 771 771>
VStem: 64 141<0 389> 630 141<0 389 389 389>
LayerCount: 2
Fore
SplineSet
205 0 m 1
 64 0 l 1
 64 770 l 1
 199 770 l 1
 417 197 l 1
 636 770 l 1
 771 770 l 1
 771 0 l 1
 630 0 l 1
 630 389 l 1
 480 0 l 1
 355 0 l 1
 205 389 l 1
 205 0 l 1
EndSplineSet
EndChar

StartChar: N
Encoding: 78 78 45
Width: 727
Flags: MW
HStem: -1 21G 750 20G<63 63 507 648 648 648>
VStem: 63 141<0 510> 507 141<261 770 0 770>
LayerCount: 2
Fore
SplineSet
204 0 m 1
 63 0 l 1
 63 770 l 1
 194 769 l 1
 507 261 l 1
 507 770 l 1
 648 770 l 1
 648 0 l 1
 517 1 l 1
 204 510 l 1
 204 0 l 1
EndSplineSet
EndChar

StartChar: P
Encoding: 80 80 48
Width: 622
Flags: MW
HStem: -1 21G 220 109 665 115
VStem: 105 141 485 137
LayerCount: 2
Fore
SplineSet
203 0 m 1
 62 0 l 1
 62 770 l 1
 203 770 l 1
 203 730 l 1
 216 747 264 784 331 784 c 0
 479 784 581 678 581 525 c 0
 581 331 485 229 324 229 c 0
 276 229 236 239 203 254 c 1
 203 0 l 1
442 525 m 0
 442 613 390 675 303 675 c 0
 273 675 235 659 203 638 c 1
 203 390 l 1
 240 359 284 341 328 341 c 0
 396 341 442 401 442 525 c 0
EndSplineSet
EndChar

StartChar: Q
Encoding: 81 81 47
Width: 760
Flags: MW
HStem: -126 115 -126 229 665 115
VStem: 40 141<274.5 496 274.5 540.5> 566 141
LayerCount: 2
Fore
SplineSet
374 784 m 0
 527 784 703 695 704 386 c 0
 704 132 591 27 463 -5 c 1
 476 -14 497 -22 521 -22 c 0
 545 -22 582 -14 631 2 c 1
 663 -101 l 1
 620 -120 552 -128 521 -128 c 0
 386 -126 321 -52 299 -7 c 1
 167 19 40 122 40 384 c 0
 40 697 218 784 374 784 c 0
374 677 m 0
 287 677 181 606 181 386 c 0
 181 163 287 94 371 94 c 0
 463 94 562 162 563 384 c 0
 563 603 463 677 374 677 c 0
EndSplineSet
EndChar

StartChar: S
Encoding: 83 83 50
Width: 623
Flags: MW
HStem: -10 112 668 112
VStem: 53 137 452 137
LayerCount: 2
Fore
SplineSet
30 151 m 1
 128 237 l 1
 186 144 243 99 318 98 c 0
 385 98 442 137 442 216 c 0
 442 295 371 317 294 341 c 0
 172 378 59 421 61 563 c 0
 64 753 225 784 301 784 c 0
 406 784 477 746 538 674 c 1
 446 595 l 1
 401 641 359 672 301 672 c 0
 268 672 204 657 200 562 c 0
 197 500 263 476 334 456 c 1
 455 418 581 369 581 216 c 0
 581 61 454 -14 315 -14 c 1
 188 -10 101 39 30 151 c 1
EndSplineSet
EndChar

StartChar: T
Encoding: 84 84 46
Width: 561
Flags: MW
HStem: -1 21G 661 109<-12 561 -12 202 343 343 343 561>
VStem: 202 141<0 661 0 661>
LayerCount: 2
Fore
SplineSet
-12 661 m 1
 -12 770 l 1
 561 770 l 1
 561 661 l 1
 343 661 l 1
 343 0 l 1
 202 0 l 1
 202 661 l 1
 -12 661 l 1
EndSplineSet
EndChar

StartChar: V
Encoding: 86 86 53
Width: 689
Flags: MW
HStem: -1 21G 750 20G<-3 143 143 143 531 677 677 677>
LayerCount: 2
Fore
SplineSet
403 0 m 1
 271 0 l 1
 -3 770 l 1
 143 770 l 1
 337 223 l 1
 531 770 l 1
 677 770 l 1
 403 0 l 1
EndSplineSet
EndChar

StartChar: X
Encoding: 88 88 55
Width: 660
Flags: MW
HStem: -1 21G 750 20G<-3 156 156 156 487 648 648 648>
LayerCount: 2
Fore
SplineSet
487 770 m 1
 648 770 l 1
 403 384 l 1
 477 268 577 112 648 0 c 1
 487 0 l 1
 322 256 l 1
 159 0 l 1
 -3 0 l 1
 241 384 l 1
 -3 770 l 1
 156 770 l 1
 322 512 l 1
 487 770 l 1
EndSplineSet
EndChar

StartChar: Y
Encoding: 89 89 56
Width: 620
Flags: MW
HStem: -1 21G 750 20G<-23 135 135 135 475 629 629 629>
VStem: 234 140<0 368 0 368>
LayerCount: 2
Fore
SplineSet
475 770 m 1
 629 770 l 1
 374 368 l 1
 374 0 l 1
 234 0 l 1
 234 368 l 1
 -23 770 l 1
 135 770 l 1
 305 505 l 1
 475 770 l 1
EndSplineSet
EndChar

StartChar: Z
Encoding: 90 90 28
Width: 616
Flags: MW
HStem: 0 114<201 433> 656 114<38 383 38 554>
LayerCount: 2
Fore
SplineSet
574 143 m 1
 574 25 l 1
 528 0 433 0 433 0 c 1
 28 0 l 1
 28 98 l 1
 383 656 l 1
 38 656 l 1
 38 770 l 1
 554 770 l 1
 554 674 l 1
 201 114 l 1
 435 114 l 1
 435 114 495 114 574 143 c 1
EndSplineSet
EndChar

StartChar: bracketleft
Encoding: 91 91 87
Width: 362
Flags: MW
HStem: -248 94<196 310 196 310> 677 93<196 310 196 196>
VStem: 59 137<-154 677 -154 770 -154 770> 59 251<-248 -154 677 770>
LayerCount: 2
Fore
SplineSet
310 770 m 1xe0
 310 677 l 1xd0
 196 677 l 1
 196 -154 l 1xe0
 310 -154 l 1
 310 -248 l 1xd0
 59 -248 l 1
 59 770 l 1
 310 770 l 1xe0
EndSplineSet
EndChar

StartChar: backslash
Encoding: 92 92 76
Width: 367
Flags: MW
HStem: -249 21G 750 20G<-4 133 133 133>
LayerCount: 2
Fore
SplineSet
-4 770 m 1
 133 770 l 1
 364 0 l 1
 226 0 l 1
 -4 770 l 1
EndSplineSet
EndChar

StartChar: bracketright
Encoding: 93 93 84
Width: 362
Flags: MW
HStem: -248 94<44 159 44 159 44 296> 677 93<44 159 44 296>
VStem: 44 252<-248 -154 -154 -154 677 770 -248 770> 159 137<-154 677 677 677>
LayerCount: 2
Fore
SplineSet
44 -248 m 1xe0
 44 -154 l 1xe0
 159 -154 l 1
 159 677 l 1xd0
 44 677 l 1
 44 770 l 1
 296 770 l 1
 296 -248 l 1
 44 -248 l 1xe0
EndSplineSet
EndChar

StartChar: asciicircum
Encoding: 94 94 35
Width: 657
Flags: MW
HStem: -1 21G 540 20G<266 377 377 377>
LayerCount: 2
Fore
SplineSet
266 560 m 1
 377 560 l 1
 632 0 l 1
 505 0 l 1
 321 402 l 1
 261 271 196 129 137 0 c 1
 11 0 l 1
 266 560 l 1
EndSplineSet
EndChar

StartChar: underscore
Encoding: 95 95 33
Width: 664
Flags: MW
HStem: -61 97
LayerCount: 2
Fore
SplineSet
616 -1 m 1
 616 -98 l 1
 34 -98 l 1
 34 -1 l 1
 616 -1 l 1
EndSplineSet
EndChar

StartChar: grave
Encoding: 96 96 68
Width: 348
Flags: MW
HStem: 581 21G 750 20G
LayerCount: 2
Fore
SplineSet
38 756 m 1
 172 756 l 1
 303 610 l 1
 204 610 l 1
 38 756 l 1
EndSplineSet
EndChar

StartChar: a
Encoding: 97 97 94
Width: 567
Flags: MW
HStem: -11 101<208 208> 461 100
VStem: 40 133 350 132
LayerCount: 2
Fore
SplineSet
107 372 m 1
 71 430 50 469 50 469 c 1
 85 489 216 561 332 561 c 0
 463 561 484 450 484 396 c 2
 484 119 l 2
 484 116 483 85 544 57 c 1
 462 -17 l 1
 414 2 386 24 372 46 c 1
 328 12 270 -11 208 -11 c 0
 184 -11 35 0 35 147 c 0
 35 220 66 307 245 333 c 0
 313 342 328 343 350 349 c 1
 350 396 l 2
 350 411 347 453 320 453 c 0
 260 453 158 399 107 372 c 1
207 90 m 0
 257 86 315 123 350 163 c 1
 350 245 l 1
 335 242 315 240 293 237 c 2
 261 232 l 1
 186 218 168 181 168 147 c 0
 168 97 199 91 207 90 c 0
EndSplineSet
EndChar

StartChar: b
Encoding: 98 98 95
Width: 629
Flags: MW
HStem: -11 112 16 20G 449 112<344 344> 783 20G
VStem: 64 135 440 135<225.5 326>
LayerCount: 2
Fore
SplineSet
344 561 m 0x7c
 503 561 575 428 575 283 c 0
 575 97 482 -11 331 -11 c 0xbc
 265 -11 203 38 198 53 c 1
 198 0 l 1
 64 0 l 1
 64 820 l 1
 198 820 l 1
 198 521 l 1
 234 546 279 561 344 561 c 0x7c
344 449 m 0
 271 450 226 409 198 368 c 1
 198 158 l 1
 239 119 291 98 331 98 c 0
 397 98 440 168 440 283 c 0
 440 369 407 448 344 449 c 0
EndSplineSet
EndChar

StartChar: d
Encoding: 100 100 20
Width: 644
Flags: MW
HStem: -11 112 449 112<249 300> 783 20G
VStem: 38 135 414 135<212 377 377 377 520 820 139 820>
LayerCount: 2
Fore
SplineSet
251 -7 m 1
 120 -7 36 122 36 267 c 0
 36 453 132 561 282 561 c 0
 326 561 369 548 414 520 c 1
 414 820 l 1
 549 820 l 1
 549 139 l 1
 549 139 544 84 613 62 c 1
 535 -19 l 1
 470 5 444 32 432 57 c 1
 384 18 322 -8 251 -7 c 1
253 104 m 0
 330 98 385 167 414 212 c 1
 414 377 l 1
 368 419 318 449 282 449 c 0
 216 449 173 382 173 267 c 0
 173 181 204 108 253 104 c 0
EndSplineSet
EndChar

StartChar: e
Encoding: 101 101 153
Width: 582
Flags: MW
HStem: -11 105 261 105<185 379 185 519 168 379> 456 105
VStem: 34 134
LayerCount: 2
Fore
SplineSet
35 269 m 0
 35 428 132 561 283 561 c 0
 501 561 519 355 519 315 c 2
 519 261 l 1
 168 261 l 1
 168 160 210 92 287 92 c 0
 310 92 358 89 443 199 c 1
 526 121 l 1
 415 -16 331 -11 287 -11 c 0
 119 -11 35 119 35 269 c 0
283 458 m 0
 236 458 205 422 185 366 c 1
 379 366 l 1
 368 409 341 458 283 458 c 0
EndSplineSet
EndChar

StartChar: f
Encoding: 102 102 154
Width: 398
Flags: MW
HStem: -1 21G 449 101<12 79 12 79 213 364> 706 101
VStem: 79 134<0 449 0 449 550 639>
LayerCount: 2
Fore
SplineSet
213 639 m 1
 213 550 l 1
 364 550 l 1
 364 449 l 1
 213 449 l 1
 213 0 l 1
 79 0 l 1
 79 449 l 1
 12 449 l 1
 12 550 l 1
 79 550 l 1
 79 639 l 2
 79 746 124 824 252 824 c 0
 338 824 449 749 449 749 c 1
 372 672 l 1
 372 672 290 723 252 723 c 0
 215 723 214 686 213 639 c 1
EndSplineSet
EndChar

StartChar: h
Encoding: 104 104 1
Width: 609
Flags: MW
HStem: -1 21G 447 114 783 20G
VStem: 63 135<0 339 487 820> 407 134<0 384 0 457>
LayerCount: 2
Fore
SplineSet
198 0 m 1
 63 0 l 1
 63 820 l 1
 198 820 l 1
 198 487 l 1
 253 528 323 561 395 561 c 0
 499 561 541 494 541 384 c 2
 541 0 l 1
 407 0 l 1
 407 384 l 2
 407 530 232 375 198 339 c 1
 198 0 l 1
EndSplineSet
EndChar

StartChar: i
Encoding: 105 105 2
Width: 276
Flags: MW
HStem: -1 21G 626 130
VStem: 67 134<0 550 0 550>
LayerCount: 2
Fore
SplineSet
67 550 m 1
 201 550 l 1
 201 0 l 1
 67 0 l 1
 67 550 l 1
58 704 m 0
 58 742 91 770 135 770 c 0
 178 770 210 742 210 704 c 0
 210 666 178 638 135 638 c 0
 91 638 58 666 58 704 c 0
EndSplineSet
EndChar

StartChar: j
Encoding: 106 106 3
Width: 225
Flags: MW
HStem: -259 21G 514 147 626 130
VStem: 17 133<-22 550>
LayerCount: 2
Fore
SplineSet
17 550 m 1
 150 550 l 1
 150 -22 l 2
 150 -147 52 -239 -26 -267 c 1
 -62 -152 l 1
 -24 -147 17 -88 17 -22 c 2
 17 550 l 1
7 704 m 0
 7 742 40 770 84 770 c 0
 127 770 160 742 160 704 c 0
 160 666 127 638 84 638 c 0
 40 638 7 666 7 704 c 0
EndSplineSet
EndChar

StartChar: k
Encoding: 107 107 4
Width: 571
Flags: MW
HStem: -1 21G 783 20G
VStem: 64 134<0 242 397 820>
LayerCount: 2
Fore
SplineSet
584 0 m 1
 434 0 l 1
 403 9 333 90 275 157 c 1
 275 156 l 1
 209 231 203 238 198 242 c 1
 198 0 l 1
 64 0 l 1
 64 820 l 1
 198 820 l 1
 198 397 l 1
 250 434 328 499 354 550 c 1
 488 550 l 1
 470 481 362 388 281 326 c 1
 293 318 304 309 314 297 c 0
 407 188 542 28 584 0 c 1
EndSplineSet
EndChar

StartChar: l
Encoding: 108 108 5
Width: 283
Flags: MW
HStem: -13 21G 783 20G
VStem: 59 134<154 166 166 820>
LayerCount: 2
Fore
SplineSet
59 820 m 1
 193 820 l 1
 193 166 l 2
 193 105 199 92 266 91 c 1
 261 -11 l 1
 217 -11 134 -7 100 26 c 0
 59 67 59 118 59 154 c 2
 59 820 l 1
EndSplineSet
EndChar

StartChar: m
Encoding: 109 109 6
Width: 912
Flags: MW
HStem: -1 21G 447 103 447 114
VStem: 68 135<0 341 479 550> 382 134<0 341 0 384 0 455> 695 135<0 384 0 455.5>
CounterMasks: 1 1c
LayerCount: 2
Fore
SplineSet
203 0 m 1xbc
 68 0 l 1
 68 550 l 1
 203 550 l 1xdc
 203 479 l 1
 248 515 302 561 370 561 c 0
 440 561 482 517 502 466 c 1
 550 509 607 561 683 561 c 0
 788 561 830 494 830 384 c 2
 830 0 l 1
 695 0 l 1
 695 384 l 2
 695 527 542 381 516 341 c 1
 516 0 l 1
 382 0 l 1
 382 384 l 2
 382 526 232 381 203 341 c 1
 203 0 l 1xbc
EndSplineSet
EndChar

StartChar: n
Encoding: 110 110 7
Width: 609
Flags: MW
HStem: -1 21G 447 114
VStem: 63 135<0 339 480 550> 407 134<0 384 0 458.5>
LayerCount: 2
Fore
SplineSet
198 0 m 1
 63 0 l 1
 63 550 l 1
 198 550 l 1
 198 480 l 1
 253 521 323 561 395 561 c 0
 499 561 541 494 541 384 c 2
 541 0 l 1
 407 0 l 1
 407 384 l 2
 407 533 239 377 198 339 c 1
 198 0 l 1
EndSplineSet
EndChar

StartChar: o
Encoding: 111 111 8
Width: 591
Flags: MW
HStem: -11 101 460 101
VStem: 35 135<207.5 343.5 207.5 380> 403 135<206 341>
LayerCount: 2
Fore
SplineSet
35 275 m 0
 35 485 160 561 287 561 c 0
 413 561 538 484 538 275 c 0
 538 64 413 -11 287 -11 c 0
 160 -11 35 59 35 275 c 0
403 275 m 0
 403 407 344 461 287 461 c 0
 229 461 170 412 170 275 c 0
 170 140 229 88 287 88 c 0
 344 88 403 137 403 275 c 0
EndSplineSet
EndChar

StartChar: p
Encoding: 112 112 9
Width: 627
Flags: MW
HStem: -245 21G -11 112<310 362 310 404.5> 449 112<360 360>
VStem: 62 135 438 135<225.5 326>
LayerCount: 2
Fore
SplineSet
197 -243 m 1
 64 -243 l 1
 64 550 l 1
 197 550 l 1
 197 478 l 1
 219 513 282 561 360 561 c 0
 491 561 573 428 573 283 c 0
 573 97 480 -11 329 -11 c 0
 261 -11 224 30 197 52 c 1
 197 -243 l 1
360 449 m 0
 282 450 227 387 197 343 c 1
 197 167 l 1
 239 128 291 101 329 101 c 0
 395 101 438 168 438 283 c 0
 438 369 408 448 360 449 c 0
EndSplineSet
EndChar

StartChar: q
Encoding: 113 113 10
Width: 629
Flags: MW
HStem: -245 21G -11 112 449 112
VStem: 35 135<224 324.5 224 360> 411 135<-243 73 73 73 216 382 382 382 507 550 -243 550>
LayerCount: 2
Fore
SplineSet
248 -11 m 0
 117 -10 35 122 35 267 c 0
 35 453 128 561 279 561 c 0
 333 561 386 528 411 507 c 1
 411 550 l 1
 546 550 l 1
 546 -243 l 1
 411 -243 l 1
 411 73 l 1
 378 29 315 -12 248 -11 c 0
248 98 m 1
 249 98 l 1
 325 96 381 170 411 216 c 1
 411 382 l 1
 368 421 316 453 279 453 c 0
 213 453 170 382 170 267 c 0
 170 181 200 99 248 98 c 1
EndSplineSet
EndChar

StartChar: r
Encoding: 114 114 11
Width: 441
Flags: MW
HStem: -1 21G 451 99<62 315.5> 451 110<281 315.5>
VStem: 62 135<0 339 0 550>
LayerCount: 2
Fore
SplineSet
62 550 m 1xb0
 190 550 l 1xd0
 190 496 l 1
 200 516 247 561 299 561 c 0
 395 561 455 491 455 491 c 1
 365 404 l 1
 365 404 329 451 302 451 c 0
 260 451 221 390 197 339 c 1
 197 0 l 1
 62 0 l 1
 62 550 l 1xb0
EndSplineSet
EndChar

StartChar: t
Encoding: 116 116 13
Width: 403
Flags: MW
HStem: -11 101 449 101 670 20G
VStem: 89 134<167 451 552 750>
LayerCount: 2
Fore
SplineSet
23 451 m 1
 23 552 l 1
 89 552 l 1
 89 750 l 1
 223 750 l 1
 223 552 l 1
 347 552 l 1
 347 451 l 1
 223 451 l 1
 223 167 l 2
 223 139 222 104 244 97 c 0
 262 91 290 112 321 143 c 1
 402 66 l 1
 348 9 292 -11 223 -11 c 0
 124 -11 89 60 89 167 c 2
 89 451 l 1
 23 451 l 1
EndSplineSet
EndChar

StartChar: u
Encoding: 117 117 14
Width: 609
Flags: MW
HStem: -11 114 16 20G 530 20G<49 184 184 184 392 527 527 527>
VStem: 49 135<166 550> 392 135<0 79 79 79 211 550 0 550>
LayerCount: 2
Fore
SplineSet
184 166 m 1x78
 175 15 352 170 392 211 c 1
 392 550 l 1
 527 550 l 1
 527 0 l 1
 392 0 l 1
 392 79 l 1
 376 50 293 -11 196 -11 c 0xb8
 91 -11 49 56 49 166 c 2
 49 550 l 1
 184 550 l 1
 184 166 l 1x78
EndSplineSet
EndChar

StartChar: v
Encoding: 118 118 15
Width: 559
Flags: MW
HStem: -1 21G 530 20G<10 159 159 159 411 557 557 557>
LayerCount: 2
Fore
SplineSet
10 550 m 1
 159 550 l 1
 271 216 l 1
 317 363 382 525 411 550 c 1
 557 550 l 1
 463 448 334 0 334 0 c 1
 221 0 l 1
 10 550 l 1
EndSplineSet
EndChar

StartChar: x
Encoding: 120 120 17
Width: 613
Flags: MW
HStem: -1 21G 530 20G<40 201 201 201 442 605 605 605>
LayerCount: 2
Fore
SplineSet
40 550 m 1
 201 550 l 1
 309 391 l 1
 356 457 423 543 442 550 c 1
 605 550 l 1
 551 511 433 352 384 282 c 1
 445 195 526 83 584 0 c 1
 423 0 l 1
 309 171 l 1
 261 104 191 7 167 0 c 1
 2 0 l 1
 65 42 194 222 235 281 c 1
 176 362 96 471 40 550 c 1
EndSplineSet
EndChar

StartChar: z
Encoding: 122 122 19
Width: 521
Flags: MW
HStem: 0 102<195 390> 449 101<29 304 29 470>
LayerCount: 2
Fore
SplineSet
486 131 m 1
 486 27 l 1
 462 0 390 0 390 0 c 1
 29 0 l 1
 29 87 l 1
 304 449 l 1
 29 449 l 1
 29 550 l 1
 470 550 l 1
 470 464 l 1
 195 102 l 1
 391 102 l 1
 391 102 449 102 486 131 c 1
EndSplineSet
EndChar

StartChar: braceleft
Encoding: 123 123 52
Width: 473
Flags: MW
HStem: -253 116 245 84 711 116
VStem: 147 137<-103 181 181 181 368 664>
CounterMasks: 1 e0
LayerCount: 2
Fore
SplineSet
278 827 m 0
 354 827 420 783 420 783 c 1
 377 675 l 1
 376 677 284 759 284 664 c 2
 284 367 l 2
 284 364 284 295 213 276 c 1
 265 261 284 208 284 182 c 2
 284 -103 l 2
 284 -197 377 -114 377 -113 c 2
 420 -222 l 1
 420 -222 354 -265 278 -265 c 0
 166 -265 147 -157 147 -103 c 2
 147 181 l 1
 147 181 147 233 55 233 c 1
 55 317 l 1
 148 317 147 368 147 368 c 1
 147 664 l 2
 147 719 166 827 278 827 c 0
EndSplineSet
EndChar

StartChar: bar
Encoding: 124 124 71
Width: 249
Flags: MW
HStem: -249 21G 807 20G<57 187 187 187>
VStem: 57 130<-248 827>
LayerCount: 2
Fore
SplineSet
187 -248 m 1
 57 -248 l 1
 57 827 l 1
 187 827 l 1
 187 -248 l 1
EndSplineSet
EndChar

StartChar: braceright
Encoding: 125 125 70
Width: 473
Flags: MW
HStem: -253 116 245 84 711 116
VStem: 179 137
CounterMasks: 1 e0
LayerCount: 2
Fore
SplineSet
187 827 m 0
 299 827 318 719 318 664 c 2
 318 368 l 1
 318 368 317 317 410 317 c 1
 410 233 l 1
 318 233 318 181 318 181 c 1
 318 -103 l 2
 318 -157 299 -265 187 -265 c 0
 111 -265 45 -222 45 -222 c 1
 88 -113 l 2
 88 -114 181 -197 181 -103 c 2
 181 182 l 2
 181 208 200 261 252 276 c 1
 181 295 181 364 181 367 c 2
 181 664 l 2
 181 759 89 677 88 675 c 1
 45 783 l 1
 45 783 111 827 187 827 c 0
EndSplineSet
EndChar

StartChar: asciitilde
Encoding: 126 126 81
Width: 655
Flags: MW
HStem: 249 93 307 93
LayerCount: 2
Fore
SplineSet
91 262 m 1x80
 30 352 l 1
 30 352 86 406 193 418 c 0
 232 422 279 413 326 400 c 1x40
 324 401 l 1
 359 394 410 385 439 386 c 1
 500 395 558 438 558 438 c 1
 599 346 l 1
 599 346 536 294 453 285 c 0
 407 280 354 291 303 303 c 1
 270 312 233 318 207 316 c 1
 140 307 91 262 91 262 c 1x80
EndSplineSet
EndChar

StartChar: exclamdown
Encoding: 161 161 282
Width: 297
Flags: MW
HStem: -47 20 636 142
VStem: 63 163 78 132
LayerCount: 2
Fore
SplineSet
82 576 m 1
 208 576 l 1
 221 -47 l 1
 69 -47 l 1
 82 576 l 1
58 700 m 0
 58 744 96 778 147 778 c 0
 196 778 233 744 233 700 c 0
 233 656 196 623 147 623 c 0
 96 623 58 656 58 700 c 0
EndSplineSet
EndChar

StartChar: cent
Encoding: 162 162 109
Width: 513
Flags: MW
HStem: -249 21G -11 112 459 113 807 20G
VStem: 32 137<255.5 324 255.5 375> 186 129
LayerCount: 2
Fore
SplineSet
307 660 m 1
 420 660 l 1
 389 547 l 1
 446 517 478 467 478 467 c 1
 393 411 l 1
 393 411 398 413 360 430 c 1
 330 315 302 213 271 95 c 1
 279 95 l 2
 307 95 337 103 407 170 c 1
 490 91 l 1
 397 -5 335 -11 279 -11 c 0
 267 -11 256 -11 245 -10 c 1
 225 -86 l 1
 112 -86 l 1
 143 30 l 1
 73 81 32 170 32 271 c 0
 32 479 169 571 284 572 c 1
 307 660 l 1
169 271 m 0
 169 240 174 210 182 185 c 1
 254 457 l 1
 210 438 169 377 169 271 c 0
EndSplineSet
EndChar

StartChar: sterling
Encoding: 163 163 136
Width: 594
Flags: MW
HStem: 0 118 438 103 750 20G
VStem: 62 141
LayerCount: 2
Fore
SplineSet
168 51 m 0
 145 51 107 -21 107 -21 c 1
 16 38 l 1
 16 38 47 126 112 145 c 1
 133 253 l 1
 67 253 l 1
 67 356 l 1
 153 356 l 1
 178 485 207 626 222 688 c 1
 251 797 352 822 395 822 c 0
 469 822 510 780 569 719 c 1
 480 647 l 1
 439 691 411 719 395 719 c 0
 386 719 365 709 354 661 c 1
 341 610 318 496 295 381 c 2
 290 356 l 1
 425 356 l 1
 425 253 l 1
 269 253 l 1
 248 143 l 1
 267 136 286 129 303 121 c 0
 331 108 360 95 384 95 c 0
 410 95 479 168 479 168 c 1
 560 87 l 1
 560 87 467 -11 384 -11 c 0
 330 -11 289 6 250 24 c 1
 251 24 l 1
 222 37 191 51 168 51 c 0
EndSplineSet
EndChar

StartChar: yen
Encoding: 165 165 133
Width: 620
Flags: MW
HStem: -1 21G 160 100<60 234 60 234 374 547> 313 100<60 206 60 234 60 206 402 547> 750 20G<-22 135 135 135 475 629 629 629>
VStem: 234 140<0 160 0 160 260 313>
LayerCount: 2
Fore
SplineSet
547 260 m 1
 547 160 l 1
 374 160 l 1
 374 0 l 1
 234 0 l 1
 234 160 l 1
 60 160 l 1
 60 260 l 1
 234 260 l 1
 234 313 l 1
 60 313 l 1
 60 413 l 1
 206 413 l 1
 135 524 45 662 -22 770 c 1
 135 770 l 1
 305 505 l 1
 475 770 l 1
 629 770 l 1
 402 413 l 1
 547 413 l 1
 547 313 l 1
 374 313 l 1
 374 260 l 1
 547 260 l 1
EndSplineSet
EndChar

StartChar: dieresis
Encoding: 168 168 99
Width: 437
Flags: MW
HStem: 581 135
VStem: 40 156 232 155
LayerCount: 2
Fore
SplineSet
50 685 m 0
 50 723 74 752 119 752 c 0
 162 752 186 723 186 685 c 0
 186 646 162 617 119 617 c 0
 74 617 50 646 50 685 c 0
242 685 m 0
 242 723 266 752 310 752 c 0
 356 752 377 723 377 685 c 0
 377 646 356 617 310 617 c 0
 266 617 242 646 242 685 c 0
EndSplineSet
EndChar

StartChar: copyright
Encoding: 169 169 107
Width: 884
Flags: MW
HStem: 0 91<354.5 510.5 354.5 542.5> 166 96<412 440 412 453> 506 98<418.5 451.5> 679 92<354.5 510.5>
VStem: 36 113<304.5 466 304.5 492> 241 125<346.5 421.5 346.5 455.5> 716 112<304.5 466>
LayerCount: 2
Fore
SplineSet
36 385 m 0
 36 599 213 771 433 771 c 0
 652 771 828 599 828 385 c 0
 828 172 652 0 433 0 c 0
 213 0 36 172 36 385 c 0
435 604 m 0
 535 604 588 518 588 518 c 1
 506 441 l 1
 506 441 469 506 434 506 c 0
 403 506 366 466 366 377 c 0
 366 316 393 262 431 262 c 0
 449 262 468 268 523 321 c 1
 596 249 l 1
 521 172 475 166 431 166 c 0
 317 166 241 257 241 377 c 0
 241 534 350 604 435 604 c 0
149 385 m 0
 149 224 276 91 433 91 c 0
 588 91 716 224 716 385 c 0
 716 547 588 679 433 679 c 0
 276 679 149 547 149 385 c 0
EndSplineSet
EndChar

StartChar: registered
Encoding: 174 174 108
Width: 884
Flags: MW
HStem: 0 91<354.5 510.5 354.5 542.5> 679 92<354.5 510.5>
VStem: 36 113<304.5 466 304.5 492> 263 116<170 329 413 508> 475 115<475 490.5> 716 112<304.5 466>
LayerCount: 2
Fore
SplineSet
379 170 m 1
 263 170 l 1
 263 602 l 1
 376 602 l 1
 397 607 418 608 442 608 c 1
 507 605 590 572 590 475 c 1
 589 404 556 367 513 347 c 1
 528 330 546 308 557 292 c 1
 581 261 614 222 684 170 c 1
 531 170 l 1
 497 193 476 222 457 248 c 1
 458 248 l 1
 434 281 401 317 379 329 c 1
 379 170 l 1
379 508 m 1
 379 413 l 1
 427 413 l 2
 447 413 474 424 475 475 c 0
 475 506 457 519 440 519 c 1
 418 521 398 517 379 508 c 1
36 385 m 0
 36 599 213 771 433 771 c 0
 652 771 828 599 828 385 c 0
 828 172 652 0 433 0 c 0
 213 0 36 172 36 385 c 0
149 385 m 0
 149 224 276 91 433 91 c 0
 588 91 716 224 716 385 c 0
 716 547 588 679 433 679 c 0
 276 679 149 547 149 385 c 0
EndSplineSet
EndChar

StartChar: acute
Encoding: 180 180 100
Width: 323
Flags: MW
HStem: 580 21G 737 20G
LayerCount: 2
Fore
SplineSet
188 756 m 1
 322 756 l 1
 156 610 l 1
 57 610 l 1
 188 756 l 1
EndSplineSet
EndChar

StartChar: paragraph
Encoding: 182 182 137
Width: 737
Flags: MW
HStem: -239 21G 679 91<451 529 451 451 641 712 641 641>
VStem: 359 112 479 112
LayerCount: 2
Fore
SplineSet
451 -238 m 1
 339 -238 l 1
 339 243 l 1
 310 230 272 216 229 216 c 0
 110 216 9 328 9 493 c 0
 9 644 125 770 296 770 c 2
 712 770 l 1
 712 679 l 1
 641 679 l 1
 641 -238 l 1
 529 -238 l 1
 529 679 l 1
 451 679 l 1
 451 -238 l 1
EndSplineSet
EndChar

StartChar: periodcentered
Encoding: 183 183 130
Width: 250
Flags: MW
HStem: 205 148<99 148>
VStem: 38 169<258 301>
LayerCount: 2
Fore
SplineSet
38 280 m 0
 38 322 74 353 124 353 c 0
 172 353 207 322 207 280 c 0
 207 236 172 205 124 205 c 0
 74 205 38 236 38 280 c 0
EndSplineSet
EndChar

StartChar: cedilla
Encoding: 184 184 125
Width: 330
Flags: MW
HStem: -254 102 428 142
VStem: -182 137 -28 163 40 131
LayerCount: 2
Fore
SplineSet
113 -57 m 2
 84 -57 l 1
 149 36 l 1
 256 36 l 1
 219 -30 l 1
 257 -41 283 -78 278 -122 c 0
 274 -154 259 -194 166 -194 c 0
 114 -194 63 -180 30 -157 c 1
 70 -93 l 1
 85 -103 172 -123 172 -89 c 0
 172 -75 162 -57 113 -57 c 2
EndSplineSet
EndChar

StartChar: questiondown
Encoding: 191 191 283
Width: 507
Flags: MW
HStem: -47 103<196.5 275.5 196.5 314> 636 142<222.5 269.5>
VStem: 10 138<126.5 142 126.5 197> 165 163<685.5 726.5> 232 131<463 484>
LayerCount: 2
Fore
SplineSet
194 534 m 1xe8
 286 608 l 1
 332 566 363 530 363 473 c 0
 363 408 315 358 254 304 c 1
 206 259 151 203 148 142 c 1
 148 111 156 56 237 56 c 0
 314 56 387 194 387 194 c 1
 477 108 l 1
 477 108 391 -47 237 -47 c 0
 42 -47 10 73 10 143 c 0
 10 251 93 323 166 388 c 0
 202 421 232 452 232 474 c 0
 232 494 218 511 194 534 c 1xe8
328 706 m 0xf0
 328 665 293 636 246 636 c 0
 199 636 165 665 165 706 c 0
 165 747 199 778 246 778 c 0
 293 778 328 747 328 706 c 0xf0
EndSplineSet
EndChar

StartChar: Agrave
Encoding: 192 192 216
Width: 713
Flags: MW
HStem: -1 21G 250 108<276 420 276 459 236 420> 750 20G<282 415 415 415> 782 21G 951 20G
LayerCount: 2
Fore
SplineSet
282 770 m 1
 415 770 l 1
 699 0 l 1
 552 0 l 1
 459 250 l 1
 236 250 l 1
 146 0 l 1
 -2 0 l 1
 282 770 l 1
420 358 m 1
 348 550 l 1
 276 358 l 1
 420 358 l 1
144 957 m 1x18
 278 957 l 1
 409 811 l 1
 310 811 l 1
 144 957 l 1x18
EndSplineSet
EndChar

StartChar: Aacute
Encoding: 193 193 168
Width: 713
Flags: MW
HStem: -1 21G 250 108<276 420 276 459 236 420> 750 20G<282 415 415 415> 781 21G 938 20G
LayerCount: 2
Fore
SplineSet
282 770 m 1
 415 770 l 1
 699 0 l 1
 552 0 l 1
 459 250 l 1
 236 250 l 1
 146 0 l 1
 -2 0 l 1
 282 770 l 1
420 358 m 1
 348 550 l 1
 276 358 l 1
 420 358 l 1
352 957 m 1x18
 486 957 l 1
 320 811 l 1
 221 811 l 1
 352 957 l 1x18
EndSplineSet
EndChar

StartChar: Acircumflex
Encoding: 194 194 180
Width: 713
Flags: MW
HStem: -1 21G 250 108<276 420 276 459 236 420> 750 20G<282 415 415 415> 770 21G<282 415 415 415> 927 20G
LayerCount: 2
Fore
SplineSet
282 770 m 1xe0
 415 770 l 1
 699 0 l 1
 552 0 l 1
 459 250 l 1
 236 250 l 1
 146 0 l 1
 -2 0 l 1
 282 770 l 1xe0
420 358 m 1
 348 550 l 1
 276 358 l 1
 420 358 l 1
306 949 m 1x18
 398 949 l 1
 556 803 l 1
 430 803 l 1
 352 880 l 1
 274 803 l 1
 149 803 l 1
 306 949 l 1x18
EndSplineSet
EndChar

StartChar: Atilde
Encoding: 195 195 233
Width: 713
Flags: MW
HStem: -1 21G 250 108<276 420 276 459 236 420> 750 20G<282 415 415 415> 802 98 847 98
LayerCount: 2
Fore
SplineSet
282 770 m 1xe0
 415 770 l 1
 699 0 l 1
 552 0 l 1
 459 250 l 1
 236 250 l 1
 146 0 l 1
 -2 0 l 1
 282 770 l 1xe0
420 358 m 1
 348 550 l 1
 276 358 l 1
 420 358 l 1
533 967 m 1x10
 582 870 l 1
 582 870 531 807 450 802 c 0x10
 385 797 336 847 268 847 c 1
 229 845 178 782 178 782 c 1
 131 877 l 1
 131 877 181 940 262 945 c 0x08
 329 950 384 900 444 900 c 1
 483 902 533 967 533 967 c 1x10
EndSplineSet
EndChar

StartChar: Adieresis
Encoding: 196 196 157
Width: 713
Flags: MW
HStem: -1 21G 250 108<276 420 276 459 236 420> 750 20G<282 415 415 415> 771 135
VStem: 183 156 375 155
LayerCount: 2
Fore
SplineSet
282 770 m 1
 415 770 l 1
 699 0 l 1
 552 0 l 1
 459 250 l 1
 236 250 l 1
 146 0 l 1
 -2 0 l 1
 282 770 l 1
420 358 m 1
 348 550 l 1
 276 358 l 1
 420 358 l 1
193 875 m 0x1c
 193 913 217 942 262 942 c 0
 305 942 329 913 329 875 c 0
 329 836 305 807 262 807 c 0
 217 807 193 836 193 875 c 0x1c
385 875 m 0
 385 913 409 942 453 942 c 0
 499 942 520 913 520 875 c 0
 520 836 499 807 453 807 c 0
 409 807 385 836 385 875 c 0
EndSplineSet
EndChar

StartChar: Aring
Encoding: 197 197 218
Width: 713
Flags: MW
HStem: -1 21G 250 108<276 420 276 459 236 420> 750 20G<282 415 415 415> 790 82 924 81
VStem: 226 103 360 102
LayerCount: 2
Fore
SplineSet
282 770 m 1
 415 770 l 1
 699 0 l 1
 552 0 l 1
 459 250 l 1
 236 250 l 1
 146 0 l 1
 -2 0 l 1
 282 770 l 1
420 358 m 1
 348 550 l 1
 276 358 l 1
 420 358 l 1
331 913 m 0x1e
 331 897 339 885 348 885 c 0
 356 885 363 897 363 913 c 0
 363 925 356 937 348 937 c 0
 339 937 331 925 331 913 c 0x1e
239 913 m 0
 239 966 287 1010 346 1010 c 0
 405 1010 453 966 453 913 c 0
 453 860 405 816 346 816 c 0
 287 816 239 860 239 913 c 0
EndSplineSet
EndChar

StartChar: AE
Encoding: 198 198 118
Width: 983
Flags: MW
HStem: -1 21G 250 108<348 464 348 464 289 464> 343 109 750 20G<423 796 796 826> 755 20G
VStem: 663 141
LayerCount: 2
Fore
SplineSet
938 0 m 1xac
 464 0 l 1
 464 250 l 1
 289 250 l 1xcc
 244 169 192 80 149 0 c 1
 -2 0 l 1
 423 770 l 1
 796 770 l 2xb4
 856 770 924 779 924 779 c 1
 924 662 l 1
 605 662 l 1
 605 453 l 1
 877 453 l 1
 877 344 l 1
 605 344 l 1
 605 109 l 1
 809 109 l 2
 869 109 938 117 938 117 c 1
 938 0 l 1xac
464 564 m 1
 348 358 l 1
 464 358 l 1
 464 564 l 1
EndSplineSet
EndChar

StartChar: Ccedilla
Encoding: 199 199 128
Width: 647
Flags: MW
HStem: -254 102 -11 116 428 142 663 117
VStem: -16 138 43 142 139 163 206 131
LayerCount: 2
Fore
SplineSet
608 663 m 1
 515 575 l 1
 515 575 457 668 364 668 c 0
 273 668 182 567 182 364 c 0
 182 213 266 100 365 97 c 0
 461 94 535 184 548 200 c 1
 638 110 l 1
 626 100 613 90 609 84 c 1
 573 48 509 -18 358 -14 c 0
 173 -10 39 148 39 364 c 0
 39 639 198 784 365 784 c 0
 538 784 608 663 608 663 c 1
273 -57 m 2
 244 -57 l 1
 309 36 l 1
 416 36 l 1
 379 -30 l 1
 417 -41 443 -78 438 -122 c 0
 434 -154 419 -194 326 -194 c 0
 274 -194 223 -180 190 -157 c 1
 230 -93 l 1
 245 -103 332 -123 332 -89 c 0
 332 -75 322 -57 273 -57 c 2
EndSplineSet
EndChar

StartChar: Egrave
Encoding: 200 200 234
Width: 565
Flags: MW
HStem: 0 118 343 109 652 118 755 20G 781 21G 950 20G
VStem: 61 141
LayerCount: 2
Fore
SplineSet
535 0 m 1xd2
 62 0 l 1
 62 770 l 1
 393 770 l 2xe2
 453 770 522 779 522 779 c 1
 522 662 l 1
 203 662 l 1
 203 453 l 1
 474 453 l 1
 474 344 l 1
 203 344 l 1
 203 109 l 1
 407 109 l 2
 467 109 535 117 535 117 c 1
 535 0 l 1xd2
87 956 m 1x0c
 221 956 l 1
 352 810 l 1
 253 810 l 1
 87 956 l 1x0c
EndSplineSet
EndChar

StartChar: Eacute
Encoding: 201 201 169
Width: 565
Flags: MW
HStem: 0 118 343 109 652 118 755 20G 781 21G 938 20G
VStem: 61 141
LayerCount: 2
Fore
SplineSet
535 0 m 1xd2
 62 0 l 1
 62 770 l 1
 393 770 l 2xe2
 453 770 522 779 522 779 c 1
 522 662 l 1
 203 662 l 1
 203 453 l 1
 474 453 l 1
 474 344 l 1
 203 344 l 1
 203 109 l 1
 407 109 l 2
 467 109 535 117 535 117 c 1
 535 0 l 1xd2
309 957 m 1x0c
 443 957 l 1
 277 811 l 1
 178 811 l 1
 309 957 l 1x0c
EndSplineSet
EndChar

StartChar: Ecircumflex
Encoding: 202 202 181
Width: 565
Flags: MW
HStem: 0 118 343 109 652 118 755 20G 780 21G 937 20G
VStem: 61 141
LayerCount: 2
Fore
SplineSet
535 0 m 1xd2
 62 0 l 1
 62 770 l 1
 393 770 l 2xe2
 453 770 522 779 522 779 c 1
 522 662 l 1
 203 662 l 1
 203 453 l 1
 474 453 l 1
 474 344 l 1
 203 344 l 1
 203 109 l 1
 407 109 l 2
 467 109 535 117 535 117 c 1
 535 0 l 1xd2
236 959 m 1x0c
 328 959 l 1
 486 813 l 1
 360 813 l 1
 282 890 l 1
 204 813 l 1
 79 813 l 1
 236 959 l 1x0c
EndSplineSet
EndChar

StartChar: Edieresis
Encoding: 203 203 158
Width: 565
Flags: MW
HStem: 0 118 343 109 652 118 755 20G 771 135
VStem: 61 141 109 156 301 155
LayerCount: 2
Fore
SplineSet
535 0 m 1xd4
 62 0 l 1
 62 770 l 1
 393 770 l 2xe4
 453 770 522 779 522 779 c 1
 522 662 l 1
 203 662 l 1
 203 453 l 1
 474 453 l 1
 474 344 l 1
 203 344 l 1
 203 109 l 1
 407 109 l 2
 467 109 535 117 535 117 c 1
 535 0 l 1xd4
119 875 m 0x0b
 119 913 143 942 188 942 c 0
 231 942 255 913 255 875 c 0
 255 836 231 807 188 807 c 0
 143 807 119 836 119 875 c 0x0b
311 875 m 0
 311 913 335 942 379 942 c 0
 425 942 446 913 446 875 c 0
 446 836 425 807 379 807 c 0
 335 807 311 836 311 875 c 0
EndSplineSet
EndChar

StartChar: Igrave
Encoding: 204 204 223
Width: 261
Flags: MW
HStem: -1 21G 750 20G<57 199 199 199> 787 21G 956 20G
VStem: 57 142<0 770>
LayerCount: 2
Fore
SplineSet
199 0 m 1
 57 0 l 1
 57 770 l 1
 199 770 l 1
 199 0 l 1
-77 962 m 1x30
 57 962 l 1
 188 816 l 1
 89 816 l 1
 -77 962 l 1x30
EndSplineSet
EndChar

StartChar: Iacute
Encoding: 205 205 170
Width: 261
Flags: MW
HStem: -1 21G 750 20G<57 199 199 199> 781 21G 938 20G
VStem: 57 142<0 770>
LayerCount: 2
Fore
SplineSet
199 0 m 1
 57 0 l 1
 57 770 l 1
 199 770 l 1
 199 0 l 1
189 957 m 1x30
 323 957 l 1
 157 811 l 1
 58 811 l 1
 189 957 l 1x30
EndSplineSet
EndChar

StartChar: Icircumflex
Encoding: 206 206 182
Width: 261
Flags: MW
HStem: -1 21G 750 20G<57 199 199 199> 780 21G 937 20G
VStem: 57 142<0 770>
LayerCount: 2
Fore
SplineSet
199 0 m 1
 57 0 l 1
 57 770 l 1
 199 770 l 1
 199 0 l 1
80 959 m 1x30
 172 959 l 1
 330 813 l 1
 204 813 l 1
 126 890 l 1
 48 813 l 1
 -77 813 l 1
 80 959 l 1x30
EndSplineSet
EndChar

StartChar: Idieresis
Encoding: 207 207 235
Width: 261
Flags: MW
HStem: -1 21G 750 20G<57 199 199 199> 774 135
VStem: -43 156 57 142<0 770> 149 155
LayerCount: 2
Fore
SplineSet
199 0 m 1xc8
 57 0 l 1
 57 770 l 1
 199 770 l 1
 199 0 l 1xc8
-33 878 m 0x34
 -33 916 -9 945 36 945 c 0
 79 945 103 916 103 878 c 0
 103 839 79 810 36 810 c 0
 -9 810 -33 839 -33 878 c 0x34
159 878 m 0
 159 916 183 945 227 945 c 0
 273 945 294 916 294 878 c 0
 294 839 273 810 227 810 c 0
 183 810 159 839 159 878 c 0
EndSplineSet
EndChar

StartChar: Eth
Encoding: 208 208 131
Width: 780
Flags: MW
HStem: -11 118 16 20G 229 103 661 119
VStem: 124 141<109 350 109 350 109 350 453 660 660 675> 601 141
LayerCount: 2
Fore
SplineSet
124 0 m 1
 124 350 l 1
 49 350 l 1
 49 453 l 1
 124 453 l 1
 124 755 l 1
 232 768 286 775 350 775 c 0
 540 775 723 717 723 380 c 0
 723 138 589 0 395 0 c 2
 124 0 l 1
436 453 m 1
 436 350 l 1
 265 350 l 1
 265 109 l 1
 395 109 l 2
 502 109 582 211 582 380 c 0
 582 550 533 667 351 667 c 0
 314 667 285 663 265 660 c 1
 265 453 l 1
 436 453 l 1
265 675 m 1
 265 660 l 1
 259 659 254 659 250 659 c 1
 247 658 241 657 236 657 c 1
 265 675 l 1
EndSplineSet
EndChar

StartChar: Ntilde
Encoding: 209 209 236
Width: 727
Flags: MW
HStem: -1 21G 750 20G<63 63 507 648 648 648> 814 98 859 98
VStem: 63 141<0 510> 507 141<261 770 0 770>
LayerCount: 2
Fore
SplineSet
204 0 m 1xcc
 63 0 l 1
 63 770 l 1
 194 769 l 1
 507 261 l 1
 507 770 l 1
 648 770 l 1
 648 0 l 1
 517 1 l 1
 204 510 l 1
 204 0 l 1xcc
524 979 m 1x20
 573 882 l 1
 573 882 522 819 441 814 c 0x20
 376 809 327 859 259 859 c 1
 220 857 169 794 169 794 c 1
 122 889 l 1
 122 889 172 952 253 957 c 0x10
 320 962 375 912 435 912 c 1
 474 914 524 979 524 979 c 1x20
EndSplineSet
EndChar

StartChar: Oacute
Encoding: 211 211 171
Width: 760
Flags: MW
HStem: -7 115 665 115 781 21G 938 20G
VStem: 40 141<274.5 496 274.5 540.5> 566 141
LayerCount: 2
Fore
SplineSet
374 784 m 0
 527 784 703 695 704 386 c 1
 704 71 536 -14 371 -14 c 0
 218 -14 40 71 40 384 c 0
 40 697 218 784 374 784 c 0
374 677 m 0
 287 677 181 606 181 386 c 0
 181 163 287 94 371 94 c 0
 463 94 562 162 563 384 c 0
 563 603 463 677 374 677 c 0
434 957 m 1x30
 568 957 l 1
 402 811 l 1
 303 811 l 1
 434 957 l 1x30
EndSplineSet
EndChar

StartChar: Otilde
Encoding: 213 213 237
Width: 760
Flags: MW
HStem: -7 115 665 115 814 98 859 98
VStem: 40 141<274.5 496 274.5 540.5> 566 141
LayerCount: 2
Fore
SplineSet
374 784 m 0xcc
 527 784 703 695 704 386 c 1
 704 71 536 -14 371 -14 c 0
 218 -14 40 71 40 384 c 0
 40 697 218 784 374 784 c 0xcc
374 677 m 0
 287 677 181 606 181 386 c 0
 181 163 287 94 371 94 c 0
 463 94 562 162 563 384 c 0
 563 603 463 677 374 677 c 0
557 979 m 1x20
 606 882 l 1
 606 882 555 819 474 814 c 0x20
 409 809 360 859 292 859 c 1
 253 857 202 794 202 794 c 1
 155 889 l 1
 155 889 205 952 286 957 c 0x10
 353 962 408 912 468 912 c 1
 507 914 557 979 557 979 c 1x20
EndSplineSet
EndChar

StartChar: Odieresis
Encoding: 214 214 159
Width: 760
Flags: MW
HStem: -7 115 665 115 771 135
VStem: 40 141<274.5 496 274.5 540.5> 195 156 387 155 566 141
LayerCount: 2
Fore
SplineSet
374 784 m 0xd2
 527 784 703 695 704 386 c 1
 704 71 536 -14 371 -14 c 0
 218 -14 40 71 40 384 c 0
 40 697 218 784 374 784 c 0xd2
374 677 m 0
 287 677 181 606 181 386 c 0
 181 163 287 94 371 94 c 0
 463 94 562 162 563 384 c 0
 563 603 463 677 374 677 c 0
205 875 m 0x2c
 205 913 229 942 274 942 c 0
 317 942 341 913 341 875 c 0
 341 836 317 807 274 807 c 0
 229 807 205 836 205 875 c 0x2c
397 875 m 0
 397 913 421 942 465 942 c 0
 511 942 532 913 532 875 c 0
 532 836 511 807 465 807 c 0
 421 807 397 836 397 875 c 0
EndSplineSet
EndChar

StartChar: Oslash
Encoding: 216 216 123
Width: 760
Flags: MW
HStem: -249 21G -7 115 665 115 750 20G
VStem: 40 141<350.5 496 350.5 540.5> 566 141
LayerCount: 2
Fore
SplineSet
374 784 m 0
 416 784 457 778 497 762 c 1
 504 776 513 793 518 803 c 1
 653 803 l 1
 597 699 l 1
 659 636 703 536 704 386 c 1
 704 71 536 -14 371 -14 c 0
 327 -14 283 -8 243 8 c 1
 222 -33 l 1
 89 -33 l 1
 142 73 l 1
 80 137 40 233 40 384 c 0
 40 697 218 784 374 784 c 0
563 384 m 0
 563 467 553 519 530 564 c 1
 298 112 l 1
 323 99 349 94 371 94 c 0
 463 94 562 162 563 384 c 0
374 677 m 0
 287 677 181 606 181 386 c 0
 181 315 195 249 212 208 c 1
 290 359 366 506 445 659 c 1
 421 671 396 677 374 677 c 0
EndSplineSet
EndChar

StartChar: Uacute
Encoding: 218 218 172
Width: 688
Flags: MW
HStem: -11 109<314.5 359 314.5 382> 750 20G<62 204 204 204 469 610 610 610> 771 21G 928 20G
VStem: 49 141 483 141
LayerCount: 2
Fore
SplineSet
610 246 m 1
 609 15 427 -11 337 -11 c 0
 246 -11 63 17 62 246 c 1
 62 770 l 1
 204 770 l 1
 204 248 l 2
 204 116 292 98 337 98 c 0
 381 98 468 119 469 246 c 1
 469 770 l 1
 610 770 l 1
 610 246 l 1
408 947 m 1x30
 542 947 l 1
 376 801 l 1
 277 801 l 1
 408 947 l 1x30
EndSplineSet
EndChar

StartChar: Ucircumflex
Encoding: 219 219 184
Width: 688
Flags: MW
HStem: -11 109<314.5 359 314.5 382> 750 20G<62 204 204 204 469 610 610 610> 780 21G 937 20G
VStem: 49 141 483 141
LayerCount: 2
Fore
SplineSet
610 246 m 1
 609 15 427 -11 337 -11 c 0
 246 -11 63 17 62 246 c 1
 62 770 l 1
 204 770 l 1
 204 248 l 2
 204 116 292 98 337 98 c 0
 381 98 468 119 469 246 c 1
 469 770 l 1
 610 770 l 1
 610 246 l 1
290 959 m 1x30
 382 959 l 1
 540 813 l 1
 414 813 l 1
 336 890 l 1
 258 813 l 1
 133 813 l 1
 290 959 l 1x30
EndSplineSet
EndChar

StartChar: Udieresis
Encoding: 220 220 160
Width: 688
Flags: MW
HStem: -11 109<314.5 359 314.5 382> 750 20G<62 204 204 204 469 610 610 610> 771 135
VStem: 49 141 165 156 357 155 483 141
LayerCount: 2
Fore
SplineSet
610 246 m 1xd2
 609 15 427 -11 337 -11 c 0
 246 -11 63 17 62 246 c 1
 62 770 l 1
 204 770 l 1
 204 248 l 2
 204 116 292 98 337 98 c 0
 381 98 468 119 469 246 c 1
 469 770 l 1
 610 770 l 1
 610 246 l 1xd2
175 875 m 0x2c
 175 913 199 942 244 942 c 0
 287 942 311 913 311 875 c 0
 311 836 287 807 244 807 c 0
 199 807 175 836 175 875 c 0x2c
367 875 m 0
 367 913 391 942 435 942 c 0
 481 942 502 913 502 875 c 0
 502 836 481 807 435 807 c 0
 391 807 367 836 367 875 c 0
EndSplineSet
EndChar

StartChar: Yacute
Encoding: 221 221 173
Width: 620
Flags: MW
HStem: -1 21G 750 20G<-23 135 135 135 475 629 629 629> 771 21G 928 20G
VStem: 234 140<0 368 0 368>
LayerCount: 2
Fore
SplineSet
475 770 m 1
 629 770 l 1
 374 368 l 1
 374 0 l 1
 234 0 l 1
 234 368 l 1
 -23 770 l 1
 135 770 l 1
 305 505 l 1
 475 770 l 1
378 947 m 1x30
 512 947 l 1
 346 801 l 1
 247 801 l 1
 378 947 l 1x30
EndSplineSet
EndChar

StartChar: Thorn
Encoding: 222 222 134
Width: 632
Flags: MW
HStem: -1 21G 127 112<306 362 306 404.5> 573 109<308 346.5> 750 20G<62 203 203 203>
VStem: 62 141<0 152 288 536 658 770> 442 139<361 467>
LayerCount: 2
Fore
SplineSet
203 0 m 1
 62 0 l 1
 62 770 l 1
 203 770 l 1
 203 658 l 1
 242 674 285 682 331 682 c 0
 479 682 581 576 581 423 c 0
 581 229 485 127 324 127 c 0
 276 127 236 137 203 152 c 1
 203 0 l 1
442 423 m 0
 442 511 390 573 303 573 c 0
 273 573 235 557 203 536 c 1
 203 288 l 1
 240 257 284 239 328 239 c 0
 396 239 442 299 442 423 c 0
EndSplineSet
EndChar

StartChar: germandbls
Encoding: 223 223 114
Width: 655
Flags: MW
HStem: 0 112<329.5 395.5 329.5 458> 370 103 449 101<5 71 5 71> 702 107<280.5 321>
VStem: 15 200 398 135
LayerCount: 2
Fore
SplineSet
254 369 m 1xdc
 254 472 l 1
 320 475 408 498 408 610 c 1
 407 681 336 702 306 702 c 0
 255 702 209 680 204 621 c 1
 204 0 l 1
 71 0 l 1
 71 449 l 1
 5 449 l 1
 5 550 l 1
 71 550 l 1xbc
 71 622 l 2
 71 753 180 809 306 809 c 0
 392 809 543 768 543 608 c 1
 542 536 517 482 480 445 c 1
 549 414 604 352 604 248 c 0
 604 136 577 0 339 0 c 0
 318 0 291 1 256 13 c 1
 256 125 l 1
 294 115 321 112 338 112 c 0
 453 112 469 176 469 248 c 0
 469 358 357 372 254 369 c 1xdc
EndSplineSet
EndChar

StartChar: atilde
Encoding: 227 227 243
Width: 567
Flags: MW
HStem: -11 101<208 208> 461 100 586 98 631 98
VStem: 40 133 350 132
LayerCount: 2
Fore
SplineSet
107 372 m 1xcc
 71 430 50 469 50 469 c 1
 85 489 216 561 332 561 c 0
 463 561 484 450 484 396 c 2
 484 119 l 2
 484 116 483 85 544 57 c 1
 462 -17 l 1
 414 2 386 24 372 46 c 1
 328 12 270 -11 208 -11 c 0
 184 -11 35 0 35 147 c 0
 35 220 66 307 245 333 c 0
 313 342 328 343 350 349 c 1
 350 396 l 2
 350 411 347 453 320 453 c 0
 260 453 158 399 107 372 c 1xcc
207 90 m 0
 257 86 315 123 350 163 c 1
 350 245 l 1
 335 242 315 240 293 237 c 2
 261 232 l 1
 186 218 168 181 168 147 c 0
 168 97 199 91 207 90 c 0
460 751 m 1x20
 509 654 l 1
 509 654 458 591 377 586 c 0x20
 312 581 263 631 195 631 c 1
 156 629 105 566 105 566 c 1
 58 661 l 1
 58 661 108 724 189 729 c 0x10
 256 734 311 684 371 684 c 1
 410 686 460 751 460 751 c 1x20
EndSplineSet
EndChar

StartChar: adieresis
Encoding: 228 228 161
Width: 567
Flags: MW
HStem: -11 101<208 208> 461 100 581 135
VStem: 40 133 110 156 302 155 350 132
LayerCount: 2
Fore
SplineSet
107 372 m 1xd2
 71 430 50 469 50 469 c 1
 85 489 216 561 332 561 c 0
 463 561 484 450 484 396 c 2
 484 119 l 2
 484 116 483 85 544 57 c 1
 462 -17 l 1
 414 2 386 24 372 46 c 1
 328 12 270 -11 208 -11 c 0
 184 -11 35 0 35 147 c 0
 35 220 66 307 245 333 c 0
 313 342 328 343 350 349 c 1
 350 396 l 2
 350 411 347 453 320 453 c 0
 260 453 158 399 107 372 c 1xd2
207 90 m 0
 257 86 315 123 350 163 c 1
 350 245 l 1
 335 242 315 240 293 237 c 2
 261 232 l 1
 186 218 168 181 168 147 c 0
 168 97 199 91 207 90 c 0
120 685 m 0x2c
 120 723 144 752 189 752 c 0
 232 752 256 723 256 685 c 0
 256 646 232 617 189 617 c 0
 144 617 120 646 120 685 c 0x2c
312 685 m 0
 312 723 336 752 380 752 c 0
 426 752 447 723 447 685 c 0
 447 646 426 617 380 617 c 0
 336 617 312 646 312 685 c 0
EndSplineSet
EndChar

StartChar: aring
Encoding: 229 229 241
Width: 567
Flags: MW
HStem: -11 101<208 208> 461 100 569 82 703 81
VStem: 40 133 164 103 298 102 350 132
LayerCount: 2
Fore
SplineSet
107 372 m 1xc9
 71 430 50 469 50 469 c 1
 85 489 216 561 332 561 c 0
 463 561 484 450 484 396 c 2
 484 119 l 2
 484 116 483 85 544 57 c 1
 462 -17 l 1
 414 2 386 24 372 46 c 1
 328 12 270 -11 208 -11 c 0
 184 -11 35 0 35 147 c 0
 35 220 66 307 245 333 c 0
 313 342 328 343 350 349 c 1
 350 396 l 2
 350 411 347 453 320 453 c 0
 260 453 158 399 107 372 c 1xc9
207 90 m 0
 257 86 315 123 350 163 c 1
 350 245 l 1
 335 242 315 240 293 237 c 2
 261 232 l 1
 186 218 168 181 168 147 c 0
 168 97 199 91 207 90 c 0
269 692 m 0x36
 269 676 277 664 286 664 c 0
 294 664 301 676 301 692 c 0
 301 704 294 716 286 716 c 0
 277 716 269 704 269 692 c 0x36
177 692 m 0
 177 745 225 789 284 789 c 0
 343 789 391 745 391 692 c 0
 391 639 343 595 284 595 c 0
 225 595 177 639 177 692 c 0
EndSplineSet
EndChar

StartChar: ccedilla
Encoding: 231 231 129
Width: 513
Flags: MW
HStem: -250 101 -11 110 420 139 451 110
VStem: -89 135 34 135<219 330 219 368.5> 63 160 129 129
LayerCount: 2
Fore
SplineSet
283 561 m 0xd9
 406 561 472 458 472 458 c 1
 384 375 l 1
 384 375 341 456 281 456 c 0
 229 456 169 394 169 266 c 0
 169 172 211 94 276 94 c 0
 304 94 333 101 402 166 c 1
 483 89 l 1
 392 -5 331 -11 276 -11 c 0
 130 -11 34 109 34 266 c 0xe4
 34 471 170 561 283 561 c 0xd9
140 -152 m 1
 126 -137 l 1
 171 -76 l 1
 166 -76 l 1
 230 36 l 1
 335 36 l 1
 309 -20 l 1
 345 -31 369 -54 369 -97 c 0
 369 -145 333 -191 242 -191 c 0
 185 -191 156 -166 140 -152 c 1
253 -97 m 0
 253 -83 241 -77 223 -76 c 1xea
 188 -76 l 1
 204 -92 229 -112 242 -112 c 0
 250 -112 253 -105 253 -97 c 0
EndSplineSet
EndChar

StartChar: egrave
Encoding: 232 232 113
Width: 582
Flags: MW
HStem: -11 105 261 105<185 379 185 519 168 379> 456 105 570 21G 736 20G
VStem: 34 134
LayerCount: 2
Fore
SplineSet
35 269 m 0
 35 428 132 561 283 561 c 0
 501 561 519 355 519 315 c 2
 519 261 l 1
 168 261 l 1
 168 160 210 92 287 92 c 0
 310 92 358 89 442 199 c 1
 526 121 l 1
 415 -16 331 -11 287 -11 c 0
 119 -11 35 119 35 269 c 0
283 458 m 0
 236 458 205 422 185 366 c 1
 379 366 l 1
 368 409 341 458 283 458 c 0
32 743 m 1
 199 743 l 1
 354 571 l 1
 228 571 l 1
 32 743 l 1
EndSplineSet
EndChar

StartChar: edieresis
Encoding: 235 235 162
Width: 582
Flags: MW
HStem: -11 105 261 105<185 379 185 519 168 379> 456 105 581 135
VStem: 34 134 108 156 300 155
LayerCount: 2
Fore
SplineSet
35 269 m 0xe8
 35 428 132 561 283 561 c 0
 501 561 519 355 519 315 c 2
 519 261 l 1
 168 261 l 1
 168 160 210 92 287 92 c 0
 310 92 358 89 443 199 c 1
 526 121 l 1
 415 -16 331 -11 287 -11 c 0
 119 -11 35 119 35 269 c 0xe8
283 458 m 0
 236 458 205 422 185 366 c 1
 379 366 l 1
 368 409 341 458 283 458 c 0
118 685 m 0x16
 118 723 142 752 187 752 c 0
 230 752 254 723 254 685 c 0
 254 646 230 617 187 617 c 0
 142 617 118 646 118 685 c 0x16
310 685 m 0
 310 723 334 752 378 752 c 0
 424 752 445 723 445 685 c 0
 445 646 424 617 378 617 c 0
 334 617 310 646 310 685 c 0
EndSplineSet
EndChar

StartChar: igrave
Encoding: 236 236 254
Width: 256
Flags: MW
HStem: -1 21G 581 21G 626 130 750 20G
VStem: 58 133<0 550 0 550>
LayerCount: 2
Fore
SplineSet
58 550 m 1xa8
 191 550 l 1
 191 0 l 1
 58 0 l 1
 58 550 l 1xa8
-75 756 m 1x50
 59 756 l 1
 190 610 l 1
 91 610 l 1
 -75 756 l 1x50
EndSplineSet
EndChar

StartChar: iacute
Encoding: 237 237 175
Width: 256
Flags: MW
HStem: -1 21G 580 21G 626 130 737 20G
VStem: 58 133<0 550 0 550>
LayerCount: 2
Fore
SplineSet
58 550 m 1xa8
 191 550 l 1
 191 0 l 1
 58 0 l 1
 58 550 l 1xa8
192 756 m 1x50
 326 756 l 1
 160 610 l 1
 61 610 l 1
 192 756 l 1x50
EndSplineSet
EndChar

StartChar: icircumflex
Encoding: 238 238 187
Width: 256
Flags: MW
HStem: -1 21G 580 21G 626 130 737 20G
VStem: 58 133<0 550 0 550>
LayerCount: 2
Fore
SplineSet
58 550 m 1xa8
 191 550 l 1
 191 0 l 1
 58 0 l 1
 58 550 l 1xa8
82 759 m 1x50
 174 759 l 1
 332 613 l 1
 206 613 l 1
 128 690 l 1
 50 613 l 1
 -75 613 l 1
 82 759 l 1x50
EndSplineSet
EndChar

StartChar: idieresis
Encoding: 239 239 163
Width: 256
Flags: MW
HStem: -1 21G 581 135 626 130
VStem: -53 156 58 133<0 550 0 550> 139 155
LayerCount: 2
Fore
SplineSet
58 550 m 1xa8
 191 550 l 1
 191 0 l 1
 58 0 l 1
 58 550 l 1xa8
-43 685 m 0x54
 -43 723 -19 752 26 752 c 0
 69 752 93 723 93 685 c 0
 93 646 69 617 26 617 c 0
 -19 617 -43 646 -43 685 c 0x54
149 685 m 0
 149 723 173 752 217 752 c 0
 263 752 284 723 284 685 c 0
 284 646 263 617 217 617 c 0
 173 617 149 646 149 685 c 0
EndSplineSet
EndChar

StartChar: eth
Encoding: 240 240 132
Width: 614
Flags: MW
HStem: -7 104<241.5 325.5 241.5 371.5> 419 105<245 298.5 204 301> 651 105 778 20G
VStem: 35 135<216.5 293.5 216.5 324.5> 422 134
LayerCount: 2
Fore
SplineSet
251 756 m 0
 265 756 277 755 288 754 c 1
 325 811 l 1
 415 752 l 1
 392 715 l 1
 503 639 556 481 556 355 c 0
 556 125 458 -7 285 -7 c 0
 95 -7 35 150 35 244 c 0
 35 405 132 524 276 524 c 0
 321 524 362 514 402 492 c 1
 387 543 362 593 329 620 c 1
 273 535 l 1
 182 589 l 1
 219 646 l 1
 188 638 158 619 133 603 c 1
 78 697 l 1
 118 724 169 756 251 756 c 0
285 97 m 0
 366 97 416 185 422 332 c 1
 373 393 326 419 276 419 c 0
 214 419 170 343 170 244 c 0
 170 189 198 97 285 97 c 0
EndSplineSet
EndChar

StartChar: ntilde
Encoding: 241 241 261
Width: 609
Flags: MW
HStem: -1 21G 447 114 586 98 631 98
VStem: 63 135<0 339 480 550> 407 134<0 384 0 458.5>
LayerCount: 2
Fore
SplineSet
198 0 m 1xcc
 63 0 l 1
 63 550 l 1
 198 550 l 1
 198 480 l 1
 253 521 323 561 395 561 c 0
 499 561 541 494 541 384 c 2
 541 0 l 1
 407 0 l 1
 407 384 l 2
 407 533 239 377 198 339 c 1
 198 0 l 1xcc
481 751 m 1x20
 530 654 l 1
 530 654 479 591 398 586 c 0x20
 333 581 284 631 216 631 c 1
 177 629 126 566 126 566 c 1
 79 661 l 1
 79 661 129 724 210 729 c 0x10
 277 734 332 684 392 684 c 1
 431 686 481 751 481 751 c 1x20
EndSplineSet
EndChar

StartChar: oacute
Encoding: 243 243 176
Width: 591
Flags: MW
HStem: -11 101 460 101 580 21G 737 20G
VStem: 35 135<207.5 343.5 207.5 380> 403 135<206 341>
LayerCount: 2
Fore
SplineSet
35 275 m 0
 35 485 160 561 287 561 c 0
 413 561 538 484 538 275 c 0
 538 64 413 -11 287 -11 c 0
 160 -11 35 59 35 275 c 0
403 275 m 0
 403 407 344 461 287 461 c 0
 229 461 170 412 170 275 c 0
 170 140 229 88 287 88 c 0
 344 88 403 137 403 275 c 0
352 756 m 1x30
 486 756 l 1
 320 610 l 1
 221 610 l 1
 352 756 l 1x30
EndSplineSet
EndChar

StartChar: ocircumflex
Encoding: 244 244 188
Width: 591
Flags: MW
HStem: -11 101 460 101 580 21G 737 20G
VStem: 35 135<207.5 343.5 207.5 380> 403 135<206 341>
LayerCount: 2
Fore
SplineSet
35 275 m 0
 35 485 160 561 287 561 c 0
 413 561 538 484 538 275 c 0
 538 64 413 -11 287 -11 c 0
 160 -11 35 59 35 275 c 0
403 275 m 0
 403 407 344 461 287 461 c 0
 229 461 170 412 170 275 c 0
 170 140 229 88 287 88 c 0
 344 88 403 137 403 275 c 0
245 759 m 1x30
 337 759 l 1
 495 613 l 1
 369 613 l 1
 291 690 l 1
 213 613 l 1
 88 613 l 1
 245 759 l 1x30
EndSplineSet
EndChar

StartChar: otilde
Encoding: 245 245 264
Width: 591
Flags: MW
HStem: -11 101 460 101 586 98 631 98
VStem: 35 135<207.5 343.5 207.5 380> 403 135<206 341>
LayerCount: 2
Fore
SplineSet
35 275 m 0xcc
 35 485 160 561 287 561 c 0
 413 561 538 484 538 275 c 0
 538 64 413 -11 287 -11 c 0
 160 -11 35 59 35 275 c 0xcc
403 275 m 0
 403 407 344 461 287 461 c 0
 229 461 170 412 170 275 c 0
 170 140 229 88 287 88 c 0
 344 88 403 137 403 275 c 0
460 751 m 1x20
 509 654 l 1
 509 654 458 591 377 586 c 0x20
 312 581 263 631 195 631 c 1
 156 629 105 566 105 566 c 1
 58 661 l 1
 58 661 108 724 189 729 c 0x10
 256 734 311 684 371 684 c 1
 410 686 460 751 460 751 c 1x20
EndSplineSet
EndChar

StartChar: odieresis
Encoding: 246 246 164
Width: 591
Flags: MW
HStem: -11 101 460 101 581 135
VStem: 35 135<207.5 343.5 207.5 380> 112 156 304 155 403 135<206 341>
LayerCount: 2
Fore
SplineSet
35 275 m 0xd2
 35 485 160 561 287 561 c 0
 413 561 538 484 538 275 c 0
 538 64 413 -11 287 -11 c 0
 160 -11 35 59 35 275 c 0xd2
403 275 m 0
 403 407 344 461 287 461 c 0
 229 461 170 412 170 275 c 0
 170 140 229 88 287 88 c 0
 344 88 403 137 403 275 c 0
122 685 m 0x2c
 122 723 146 752 191 752 c 0
 234 752 258 723 258 685 c 0
 258 646 234 617 191 617 c 0
 146 617 122 646 122 685 c 0x2c
314 685 m 0
 314 723 338 752 382 752 c 0
 428 752 449 723 449 685 c 0
 449 646 428 617 382 617 c 0
 338 617 314 646 314 685 c 0
EndSplineSet
EndChar

StartChar: oslash
Encoding: 248 248 126
Width: 591
Flags: MW
HStem: -11 101 460 101
VStem: 35 135<258.5 343.5 258.5 380> 403 135<206 291.5>
LayerCount: 2
Fore
SplineSet
35 275 m 0
 35 485 160 561 287 561 c 0
 312 561 339 557 361 552 c 1
 375 580 l 1
 507 580 l 1
 462 491 l 1
 505 444 538 370 538 275 c 0
 538 64 413 -11 287 -11 c 0
 260 -11 231 -7 208 -2 c 1
 194 -30 l 1
 62 -30 l 1
 106 58 l 1
 63 104 35 174 35 275 c 0
403 275 m 0
 403 308 401 336 394 359 c 1
 257 93 l 1
 267 90 277 88 287 88 c 0
 344 88 403 137 403 275 c 0
170 275 m 0
 170 242 171 219 177 196 c 1
 223 286 265 364 313 456 c 1
 303 459 295 461 287 461 c 0
 229 461 170 412 170 275 c 0
EndSplineSet
EndChar

StartChar: ugrave
Encoding: 249 249 270
Width: 609
Flags: MW
HStem: -11 114 16 20G 530 20G<49 184 184 184 392 527 527 527> 581 21G 750 20G
VStem: 49 135<166 550> 392 135<0 79 79 79 211 550 0 550>
LayerCount: 2
Fore
SplineSet
184 166 m 1x66
 175 15 352 170 392 211 c 1
 392 550 l 1
 527 550 l 1
 527 0 l 1
 392 0 l 1
 392 79 l 1
 376 50 293 -11 196 -11 c 0xa6
 91 -11 49 56 49 166 c 2
 49 550 l 1
 184 550 l 1
 184 166 l 1x66
93 756 m 1x18
 227 756 l 1
 358 610 l 1
 259 610 l 1
 93 756 l 1x18
EndSplineSet
EndChar

StartChar: uacute
Encoding: 250 250 177
Width: 609
Flags: MW
HStem: -11 114 16 20G 530 20G<49 184 184 184 392 527 527 527> 580 21G 737 20G
VStem: 49 135<166 550> 392 135<0 79 79 79 211 550 0 550>
LayerCount: 2
Fore
SplineSet
184 166 m 1x66
 175 15 352 170 392 211 c 1
 392 550 l 1
 527 550 l 1
 527 0 l 1
 392 0 l 1
 392 79 l 1
 376 50 293 -11 196 -11 c 0xa6
 91 -11 49 56 49 166 c 2
 49 550 l 1
 184 550 l 1
 184 166 l 1x66
363 756 m 1x18
 497 756 l 1
 331 610 l 1
 232 610 l 1
 363 756 l 1x18
EndSplineSet
EndChar

StartChar: ucircumflex
Encoding: 251 251 189
Width: 609
Flags: MW
HStem: -11 114 16 20G 530 20G<49 184 184 184 392 527 527 527> 580 21G 737 20G
VStem: 49 135<166 550> 392 135<0 79 79 79 211 550 0 550>
LayerCount: 2
Fore
SplineSet
184 166 m 1x66
 175 15 352 170 392 211 c 1
 392 550 l 1
 527 550 l 1
 527 0 l 1
 392 0 l 1
 392 79 l 1
 376 50 293 -11 196 -11 c 0xa6
 91 -11 49 56 49 166 c 2
 49 550 l 1
 184 550 l 1
 184 166 l 1x66
243 759 m 1x18
 335 759 l 1
 493 613 l 1
 367 613 l 1
 289 690 l 1
 211 613 l 1
 86 613 l 1
 243 759 l 1x18
EndSplineSet
EndChar

StartChar: udieresis
Encoding: 252 252 165
Width: 609
Flags: MW
HStem: -11 114 16 20G 530 20G<49 184 184 184 392 527 527 527> 581 135
VStem: 49 135<166 550> 111 156 303 155 392 135<0 79 79 79 211 550 0 550>
LayerCount: 2
Fore
SplineSet
184 166 m 1x69
 175 15 352 170 392 211 c 1
 392 550 l 1
 527 550 l 1
 527 0 l 1
 392 0 l 1
 392 79 l 1
 376 50 293 -11 196 -11 c 0xa9
 91 -11 49 56 49 166 c 2
 49 550 l 1
 184 550 l 1
 184 166 l 1x69
121 685 m 0x16
 121 723 145 752 190 752 c 0
 233 752 257 723 257 685 c 0
 257 646 233 617 190 617 c 0
 145 617 121 646 121 685 c 0x16
313 685 m 0
 313 723 337 752 381 752 c 0
 427 752 448 723 448 685 c 0
 448 646 427 617 381 617 c 0
 337 617 313 646 313 685 c 0
EndSplineSet
EndChar

StartChar: thorn
Encoding: 254 254 135
Width: 627
Flags: MW
HStem: -245 21G -11 112<310 362 310 404.5> 16 20G 449 112<360 360> 792 20G
VStem: -93 135 99 127 283 135
CounterMasks: 1 07
LayerCount: 2
Fore
SplineSet
197 -243 m 1xbf
 64 -243 l 1
 64 756 l 1
 197 756 l 1
 197 508 l 1
 239 541 292 562 360 561 c 0
 491 560 573 428 573 283 c 0
 573 97 480 -11 329 -11 c 0xdf
 288 -11 241 6 197 32 c 1
 197 -243 l 1xbf
360 449 m 0
 282 450 227 387 197 343 c 1
 197 167 l 1
 239 128 291 101 329 101 c 0
 395 101 438 168 438 283 c 0
 438 369 408 448 360 449 c 0
EndSplineSet
EndChar

StartChar: ydieresis
Encoding: 255 255 111
Width: 518
Flags: MW
HStem: -259 21G<4 4> 530 20G<-9 131 131 131 397 551 551 551>
LayerCount: 2
Fore
SplineSet
-9 550 m 1
 131 550 l 1
 250 244 l 1
 309 387 372 528 397 550 c 1
 551 550 l 1
 504 504 471 439 281 -25 c 0
 259 -80 230 -147 179 -195 c 1
 124 -249 53 -256 4 -259 c 1
 -26 -155 l 1
 48 -151 70 -136 86 -119 c 1
 104 -103 124 -68 155 8 c 1
 162 28 169 46 177 65 c 1
 -9 550 l 1
78 637 m 0
 78 674 111 702 155 702 c 0
 198 702 231 674 231 637 c 0
 231 599 198 571 155 571 c 0
 111 571 78 599 78 637 c 0
266 637 m 0
 266 674 300 702 343 702 c 0
 388 702 419 674 419 637 c 0
 419 599 388 571 343 571 c 0
 300 571 266 599 266 637 c 0
EndSplineSet
EndChar

StartChar: Abreve
Encoding: 258 258 200
Width: 713
Flags: MW
HStem: -1 21G 250 108<276 420 276 459 236 420> 750 20G<282 415 415 415> 773 97 773 178
LayerCount: 2
Fore
SplineSet
282 770 m 1xf0
 415 770 l 1
 699 0 l 1
 552 0 l 1
 459 250 l 1
 236 250 l 1
 146 0 l 1
 -2 0 l 1
 282 770 l 1xf0
420 358 m 1
 348 550 l 1
 276 358 l 1
 420 358 l 1
175 951 m 1xe8
 281 951 l 1
 285 910 314 880 350 880 c 0
 380 880 408 910 413 951 c 1
 518 951 l 1
 507 859 446 803 350 803 c 0
 250 803 188 849 175 951 c 1xe8
EndSplineSet
EndChar

StartChar: Aogonek
Encoding: 260 260 217
Width: 713
Flags: MW
HStem: -149 88<625 632 625 651> -1 21G 65 20G 250 108<276 420 276 459 236 420> 750 20G<282 415 415 415>
VStem: 508 108<-51 -21.5 -51 -16.5>
LayerCount: 2
Fore
SplineSet
282 770 m 1
 415 770 l 1
 699 0 l 1
 552 0 l 1
 459 250 l 1
 236 250 l 1
 146 0 l 1
 -2 0 l 1
 282 770 l 1
420 358 m 1
 348 550 l 1
 276 358 l 1
 420 358 l 1
508 -48 m 0xa4
 508 15 611 91 611 91 c 1
 683 48 l 1
 683 48 616 3 616 -46 c 0
 616 -56 623 -61 627 -61 c 0
 637 -61 656 -44 676 -19 c 1
 750 -87 l 1
 719 -122 675 -149 627 -149 c 0
 575 -149 508 -116 508 -48 c 0xa4
EndSplineSet
EndChar

StartChar: cacute
Encoding: 263 263 244
Width: 513
Flags: MW
HStem: -11 110 451 110 580 21G 737 20G
VStem: 34 135<219 330 219 368.5>
LayerCount: 2
Fore
SplineSet
283 561 m 0
 406 561 472 458 472 458 c 1
 384 375 l 1
 384 375 341 456 281 456 c 0
 229 456 169 394 169 266 c 0
 169 172 211 94 276 94 c 0
 304 94 333 101 402 166 c 1
 483 89 l 1
 392 -5 331 -11 276 -11 c 0
 130 -11 34 109 34 266 c 0
 34 471 170 561 283 561 c 0
338 756 m 1x30
 472 756 l 1
 306 610 l 1
 207 610 l 1
 338 756 l 1x30
EndSplineSet
EndChar

StartChar: Ccircumflex
Encoding: 264 264 221
Width: 647
Flags: MW
HStem: -11 116 663 117 782 21G 939 20G
VStem: 43 142
LayerCount: 2
Fore
SplineSet
608 663 m 1
 515 575 l 1
 515 575 457 668 364 668 c 0
 273 668 182 567 182 364 c 0
 182 213 266 100 365 97 c 0
 461 94 535 184 548 200 c 1
 638 110 l 1
 626 100 613 90 609 84 c 1
 573 48 509 -18 358 -14 c 0
 173 -10 39 148 39 364 c 0
 39 639 198 784 365 784 c 0
 538 784 608 663 608 663 c 1
317 961 m 1x30
 409 961 l 1
 567 815 l 1
 441 815 l 1
 363 892 l 1
 285 815 l 1
 160 815 l 1
 317 961 l 1x30
EndSplineSet
EndChar

StartChar: Ccaron
Encoding: 268 268 201
Width: 647
Flags: MW
HStem: -11 116 663 117 786 21G 942 20G
VStem: 43 142
LayerCount: 2
Fore
SplineSet
608 663 m 1
 515 575 l 1
 515 575 457 668 364 668 c 0
 273 668 182 567 182 364 c 0
 182 213 266 100 365 97 c 0
 461 94 535 184 548 200 c 1
 638 110 l 1
 626 100 613 90 609 84 c 1
 573 48 509 -18 358 -14 c 0
 173 -10 39 148 39 364 c 0
 39 639 198 784 365 784 c 0
 538 784 608 663 608 663 c 1
409 815 m 1x30
 317 815 l 1
 160 961 l 1
 285 961 l 1
 363 884 l 1
 441 961 l 1
 567 961 l 1
 409 815 l 1x30
EndSplineSet
EndChar

StartChar: ccaron
Encoding: 269 269 245
Width: 513
Flags: MW
HStem: -11 110 451 110 576 21G 732 20G
VStem: 34 135<219 330 219 368.5>
LayerCount: 2
Fore
SplineSet
283 561 m 0
 406 561 472 458 472 458 c 1
 384 375 l 1
 384 375 341 456 281 456 c 0
 229 456 169 394 169 266 c 0
 169 172 211 94 276 94 c 0
 304 94 333 101 402 166 c 1
 483 89 l 1
 392 -5 331 -11 276 -11 c 0
 130 -11 34 109 34 266 c 0
 34 471 170 561 283 561 c 0
320 605 m 1x30
 228 605 l 1
 71 751 l 1
 196 751 l 1
 274 674 l 1
 352 751 l 1
 478 751 l 1
 320 605 l 1x30
EndSplineSet
EndChar

StartChar: Dcaron
Encoding: 270 270 220
Width: 717
Flags: MW
HStem: -11 118 16 20G 661 119 786 21G 942 20G
VStem: 63 141<109 660 109 755 109 755> 541 141
LayerCount: 2
Fore
SplineSet
63 0 m 1
 63 755 l 1
 172 768 225 775 289 775 c 0
 480 775 663 717 663 380 c 0
 663 138 528 0 335 0 c 2
 63 0 l 1
521 380 m 0
 521 550 472 667 291 667 c 0
 254 667 224 663 204 660 c 1
 204 109 l 1
 335 109 l 2
 441 109 521 211 521 380 c 0
364 815 m 1
 272 815 l 1
 115 961 l 1
 240 961 l 1
 318 884 l 1
 396 961 l 1
 522 961 l 1
 364 815 l 1
EndSplineSet
EndChar

StartChar: Ebreve
Encoding: 276 276 202
Width: 565
Flags: MW
HStem: 0 118 343 109 652 118 755 20G 773 97 773 178
VStem: 61 141
LayerCount: 2
Fore
SplineSet
535 0 m 1xd2
 62 0 l 1
 62 770 l 1
 393 770 l 2xea
 453 770 522 779 522 779 c 1
 522 662 l 1
 203 662 l 1
 203 453 l 1
 474 453 l 1
 474 344 l 1
 203 344 l 1
 203 109 l 1
 407 109 l 2
 467 109 535 117 535 117 c 1
 535 0 l 1xd2
111 951 m 1xe6
 217 951 l 1
 221 910 250 880 286 880 c 0
 316 880 344 910 349 951 c 1
 454 951 l 1
 443 859 382 803 286 803 c 0
 186 803 124 849 111 951 c 1xe6
EndSplineSet
EndChar

StartChar: ebreve
Encoding: 277 277 247
Width: 582
Flags: MW
HStem: -11 105 261 105<185 379 185 519 168 379> 456 105 573 97 573 178
VStem: 34 134
LayerCount: 2
Fore
SplineSet
35 269 m 0xf4
 35 428 132 561 283 561 c 0
 501 561 519 355 519 315 c 2
 519 261 l 1
 168 261 l 1
 168 160 210 92 287 92 c 0
 310 92 358 89 443 199 c 1
 526 121 l 1
 415 -16 331 -11 287 -11 c 0
 119 -11 35 119 35 269 c 0xf4
283 458 m 0
 236 458 205 422 185 366 c 1
 379 366 l 1
 368 409 341 458 283 458 c 0
106 751 m 1xec
 212 751 l 1
 216 710 245 680 281 680 c 0
 311 680 339 710 344 751 c 1
 449 751 l 1
 438 659 377 603 281 603 c 0
 181 603 119 649 106 751 c 1xec
EndSplineSet
EndChar

StartChar: Eogonek
Encoding: 280 280 222
Width: 565
Flags: MW
HStem: -149 88<410 417 410 436> 0 118 65 20G 343 109 652 118 755 20G
VStem: 61 141 293 108<-51 -21.5 -51 -16.5>
LayerCount: 2
Fore
SplineSet
535 0 m 1x56
 62 0 l 1
 62 770 l 1
 393 770 l 2x5a
 453 770 522 779 522 779 c 1
 522 662 l 1
 203 662 l 1
 203 453 l 1
 474 453 l 1
 474 344 l 1
 203 344 l 1
 203 109 l 1
 407 109 l 2
 467 109 535 117 535 117 c 1
 535 0 l 1x56
293 -48 m 0xa1
 293 15 396 91 396 91 c 1
 468 48 l 1
 468 48 401 3 401 -46 c 0
 401 -56 408 -61 412 -61 c 0
 422 -61 441 -44 461 -19 c 1
 535 -87 l 1
 504 -122 460 -149 412 -149 c 0
 360 -149 293 -116 293 -48 c 0xa1
EndSplineSet
EndChar

StartChar: eogonek
Encoding: 281 281 249
Width: 582
Flags: MW
HStem: -149 88<342 349 342 368> -11 105 65 20G 261 105<185 379 185 519 168 379> 456 105
VStem: 34 134 225 108<-51 -21.5 -51 -16.5>
LayerCount: 2
Fore
SplineSet
35 269 m 0x5c
 35 428 132 561 283 561 c 0
 501 561 519 355 519 315 c 2
 519 261 l 1
 168 261 l 1
 168 160 210 92 287 92 c 0
 310 92 358 89 443 199 c 1
 526 121 l 1
 415 -16 331 -11 287 -11 c 0
 119 -11 35 119 35 269 c 0x5c
283 458 m 0
 236 458 205 422 185 366 c 1
 379 366 l 1
 368 409 341 458 283 458 c 0
225 -48 m 0xa2
 225 15 328 91 328 91 c 1
 400 48 l 1
 400 48 333 3 333 -46 c 0
 333 -56 340 -61 344 -61 c 0
 354 -61 373 -44 393 -19 c 1
 467 -87 l 1
 436 -122 392 -149 344 -149 c 0
 292 -149 225 -116 225 -48 c 0xa2
EndSplineSet
EndChar

StartChar: Ecaron
Encoding: 282 282 203
Width: 565
Flags: MW
HStem: 0 118 343 109 652 118 755 20G 776 21G 932 20G
VStem: 61 141
LayerCount: 2
Fore
SplineSet
535 0 m 1xd2
 62 0 l 1
 62 770 l 1
 393 770 l 2xe2
 453 770 522 779 522 779 c 1
 522 662 l 1
 203 662 l 1
 203 453 l 1
 474 453 l 1
 474 344 l 1
 203 344 l 1
 203 109 l 1
 407 109 l 2
 467 109 535 117 535 117 c 1
 535 0 l 1xd2
339 805 m 1x0c
 247 805 l 1
 90 951 l 1
 215 951 l 1
 293 874 l 1
 371 951 l 1
 497 951 l 1
 339 805 l 1x0c
EndSplineSet
EndChar

StartChar: ecaron
Encoding: 283 283 248
Width: 582
Flags: MW
HStem: -11 105 261 105<185 379 185 519 168 379> 456 105 576 21G 732 20G
VStem: 34 134
LayerCount: 2
Fore
SplineSet
35 269 m 0
 35 428 132 561 283 561 c 0
 501 561 519 355 519 315 c 2
 519 261 l 1
 168 261 l 1
 168 160 210 92 287 92 c 0
 310 92 358 89 443 199 c 1
 526 121 l 1
 415 -16 331 -11 287 -11 c 0
 119 -11 35 119 35 269 c 0
283 458 m 0
 236 458 205 422 185 366 c 1
 379 366 l 1
 368 409 341 458 283 458 c 0
323 605 m 1x18
 231 605 l 1
 74 751 l 1
 199 751 l 1
 277 674 l 1
 355 751 l 1
 481 751 l 1
 323 605 l 1x18
EndSplineSet
EndChar

StartChar: Gcircumflex
Encoding: 284 284 198
Width: 753
Flags: MW
HStem: -11 118 291 118 667 113 780 21G 937 20G
VStem: 41 144 538 131
LayerCount: 2
Fore
SplineSet
672 396 m 1xe6
 672 158 l 2
 672 62 539 -12 414 -14 c 1
 110 -14 39 210 39 369 c 0
 39 679 253 784 409 784 c 0
 576 784 669 653 669 653 c 1
 576 560 l 1
 576 560 502 676 413 676 c 0
 321 676 183 591 183 369 c 0
 183 260 225 98 410 98 c 0
 456 98 535 132 535 167 c 2
 535 286 l 1
 470 286 l 2
 442 286 404 286 362 308 c 1
 362 411 l 1
 421 396 453 396 474 396 c 2
 672 396 l 1xe6
350 959 m 1x18
 442 959 l 1
 600 813 l 1
 474 813 l 1
 396 890 l 1
 318 813 l 1
 193 813 l 1
 350 959 l 1x18
EndSplineSet
EndChar

StartChar: gcircumflex
Encoding: 285 285 252
Width: 618
Flags: MW
HStem: -257 105 37 105<268 291> 184 96<281.5 307.5 271 332.5> 468 95<271 297 245.5 307.5> 505 105<488.5 500> 580 21G 737 20G
VStem: 40 136 60 135 384 134 450 131
LayerCount: 2
Fore
SplineSet
192 381 m 0xf0c0
 192 290 253 280 289 280 c 0
 326 280 386 297 386 381 c 0
 386 444 326 468 289 468 c 0
 253 468 192 444 192 381 c 0xf0c0
71 132 m 0
 71 164 95 196 129 227 c 1
 90 258 58 307 58 381 c 0
 58 510 202 563 289 563 c 0xf0c0
 305 563 323 561 342 557 c 1
 384 591 438 610 493 610 c 0
 515 610 546 603 579 593 c 1
 560 490 l 1
 530 500 507 505 493 505 c 0
 484 505 472 503 461 501 c 1
 493 472 519 430 519 381 c 0
 519 217 376 184 289 184 c 0
 274 184 257 184 242 186 c 1
 223 170 207 152 206 137 c 1
 211 141 245 144 270 143 c 0
 276 143 287 142 291 142 c 0
 426 135 584 109 584 -29 c 0
 584 -152 493 -257 293 -257 c 0
 160 -257 40 -173 40 -74 c 1xe940
 41 7 63 35 109 69 c 1
 85 84 71 103 71 132 c 0
293 -153 m 0
 401 -153 450 -95 450 -29 c 0xf0a0
 450 23 360 33 287 37 c 1
 249 37 246 38 232 38 c 1
 199 17 173 -5 173 -74 c 0
 173 -118 235 -153 293 -153 c 0
219 759 m 1x06
 311 759 l 1
 469 613 l 1
 343 613 l 1
 265 690 l 1
 187 613 l 1
 62 613 l 1
 219 759 l 1x06
EndSplineSet
EndChar

StartChar: Gbreve
Encoding: 286 286 204
Width: 753
Flags: MW
HStem: -11 118 291 118 667 113 783 97 783 178
VStem: 41 144 538 131
LayerCount: 2
Fore
SplineSet
672 396 m 1xf6
 672 158 l 2
 672 62 539 -12 414 -14 c 1
 110 -14 39 210 39 369 c 0
 39 679 253 784 409 784 c 0
 576 784 669 653 669 653 c 1
 576 560 l 1
 576 560 502 676 413 676 c 0
 321 676 183 591 183 369 c 0
 183 260 225 98 410 98 c 0
 456 98 535 132 535 167 c 2
 535 286 l 1
 470 286 l 2
 442 286 404 286 362 308 c 1
 362 411 l 1
 421 396 453 396 474 396 c 2
 672 396 l 1xf6
217 961 m 1xee
 323 961 l 1
 327 920 356 890 392 890 c 0
 422 890 450 920 455 961 c 1
 560 961 l 1
 549 869 488 813 392 813 c 0
 292 813 230 859 217 961 c 1xee
EndSplineSet
EndChar

StartChar: gbreve
Encoding: 287 287 251
Width: 618
Flags: MW
HStem: -257 105 37 105<268 291> 184 96<281.5 307.5 271 332.5> 468 95<271 297 245.5 307.5> 505 105<488.5 500> 573 97 573 178
VStem: 40 136 60 135 384 134 450 131
LayerCount: 2
Fore
SplineSet
192 381 m 0xf4c0
 192 290 253 280 289 280 c 0
 326 280 386 297 386 381 c 0
 386 444 326 468 289 468 c 0
 253 468 192 444 192 381 c 0xf4c0
71 132 m 0
 71 164 95 196 129 227 c 1
 90 258 58 307 58 381 c 0
 58 510 202 563 289 563 c 0xf4c0
 305 563 323 561 342 557 c 1
 384 591 438 610 493 610 c 0
 515 610 546 603 579 593 c 1
 560 490 l 1
 530 500 507 505 493 505 c 0xe8c0
 484 505 472 503 461 501 c 1
 493 472 519 430 519 381 c 0
 519 217 376 184 289 184 c 0
 274 184 257 184 242 186 c 1
 223 170 207 152 206 137 c 1
 211 141 245 144 270 143 c 0
 276 143 287 142 291 142 c 0
 426 135 584 109 584 -29 c 0
 584 -152 493 -257 293 -257 c 0
 160 -257 40 -173 40 -74 c 1xf540
 41 7 63 35 109 69 c 1
 85 84 71 103 71 132 c 0
293 -153 m 0
 401 -153 450 -95 450 -29 c 0xf4a0
 450 23 360 33 287 37 c 1
 249 37 246 38 232 38 c 1
 199 17 173 -5 173 -74 c 0
 173 -118 235 -153 293 -153 c 0
115 751 m 1xf2c0
 221 751 l 1
 225 710 254 680 290 680 c 0
 320 680 348 710 353 751 c 1
 458 751 l 1
 447 659 386 603 290 603 c 0
 190 603 128 649 115 751 c 1xf2c0
EndSplineSet
EndChar

StartChar: Hcircumflex
Encoding: 292 292 192
Width: 745
Flags: MW
HStem: -1 21G 343 109<204 524 204 524> 750 20G<63 204 204 204 524 665 665 665> 780 21G 937 20G
VStem: 63 141<0 343 452 770> 524 141<0 343 343 343 452 770 0 770>
LayerCount: 2
Fore
SplineSet
204 0 m 1
 63 0 l 1
 63 770 l 1
 204 770 l 1
 204 452 l 1
 524 452 l 1
 524 770 l 1
 665 770 l 1
 665 0 l 1
 524 0 l 1
 524 343 l 1
 204 343 l 1
 204 0 l 1
326 959 m 1x18
 418 959 l 1
 576 813 l 1
 450 813 l 1
 372 890 l 1
 294 813 l 1
 169 813 l 1
 326 959 l 1x18
EndSplineSet
EndChar

StartChar: Itilde
Encoding: 296 296 225
Width: 261
Flags: MW
HStem: -1 21G 750 20G<57 199 199 199> 807 98 852 98
VStem: 57 142<0 770>
LayerCount: 2
Fore
SplineSet
199 0 m 1xc8
 57 0 l 1
 57 770 l 1
 199 770 l 1
 199 0 l 1xc8
308 972 m 1x20
 357 875 l 1
 357 875 306 812 225 807 c 0x20
 160 802 111 852 43 852 c 1
 4 850 -47 787 -47 787 c 1
 -94 882 l 1
 -94 882 -44 945 37 950 c 0x10
 104 955 159 905 219 905 c 1
 258 907 308 972 308 972 c 1x20
EndSplineSet
EndChar

StartChar: itilde
Encoding: 297 297 256
Width: 256
Flags: MW
HStem: -1 21G 586 98 626 130 631 98
VStem: 58 133<0 550 0 550>
LayerCount: 2
Fore
SplineSet
58 550 m 1xa8
 191 550 l 1
 191 0 l 1
 58 0 l 1
 58 550 l 1xa8
305 751 m 1x40
 354 654 l 1
 354 654 303 591 222 586 c 0x40
 157 581 108 631 40 631 c 1
 1 629 -50 566 -50 566 c 1
 -97 661 l 1
 -97 661 -47 724 34 729 c 0x10
 101 734 156 684 216 684 c 1
 255 686 305 751 305 751 c 1x40
EndSplineSet
EndChar

StartChar: Ibreve
Encoding: 300 300 205
Width: 261
Flags: MW
HStem: -1 21G 750 20G<57 199 199 199> 783 97 783 178
VStem: 57 142<0 770>
LayerCount: 2
Fore
SplineSet
199 0 m 1xe8
 57 0 l 1
 57 770 l 1
 199 770 l 1
 199 0 l 1xe8
-43 961 m 1xd8
 63 961 l 1
 67 920 96 890 132 890 c 0
 162 890 190 920 195 961 c 1
 300 961 l 1
 289 869 228 813 132 813 c 0
 32 813 -30 859 -43 961 c 1xd8
EndSplineSet
EndChar

StartChar: ibreve
Encoding: 301 301 253
Width: 256
Flags: MW
HStem: -1 21G 573 178 626 130
VStem: 58 133<0 550 0 550>
LayerCount: 2
Fore
SplineSet
58 550 m 1xb0
 191 550 l 1
 191 0 l 1
 58 0 l 1
 58 550 l 1xb0
-52 751 m 1xd0
 54 751 l 1
 58 710 87 680 123 680 c 0
 153 680 181 710 186 751 c 1
 291 751 l 1
 280 659 219 603 123 603 c 0
 23 603 -39 649 -52 751 c 1xd0
EndSplineSet
EndChar

StartChar: Iogonek
Encoding: 302 302 224
Width: 261
Flags: MW
HStem: -149 88<138 145 138 164> -1 21G 65 20G 750 20G<57 199 199 199>
VStem: 21 108<-51 -21.5 -51 -16.5> 57 142<0 770>
LayerCount: 2
Fore
SplineSet
199 0 m 1x54
 57 0 l 1
 57 770 l 1
 199 770 l 1
 199 0 l 1x54
21 -48 m 0xa8
 21 15 124 91 124 91 c 1
 196 48 l 1
 196 48 129 3 129 -46 c 0
 129 -56 136 -61 140 -61 c 0
 150 -61 169 -44 189 -19 c 1
 263 -87 l 1
 232 -122 188 -149 140 -149 c 0
 88 -149 21 -116 21 -48 c 0xa8
EndSplineSet
EndChar

StartChar: iogonek
Encoding: 303 303 255
Width: 276
Flags: MW
HStem: -149 88<135 142 135 161> -1 21G 65 20G 626 130
VStem: 18 108<-51 -21.5 -51 -16.5> 67 134<0 550 0 550>
LayerCount: 2
Fore
SplineSet
67 550 m 1x54
 201 550 l 1
 201 0 l 1
 67 0 l 1
 67 550 l 1x54
58 704 m 0
 58 742 91 770 135 770 c 0
 178 770 210 742 210 704 c 0
 210 666 178 638 135 638 c 0
 91 638 58 666 58 704 c 0
18 -48 m 0xa8
 18 15 121 91 121 91 c 1
 193 48 l 1
 193 48 126 3 126 -46 c 0
 126 -56 133 -61 137 -61 c 0
 147 -61 166 -44 186 -19 c 1
 260 -87 l 1
 229 -122 185 -149 137 -149 c 0
 85 -149 18 -116 18 -48 c 0xa8
EndSplineSet
EndChar

StartChar: dotlessi
Encoding: 305 305 112
Width: 256
Flags: MW
HStem: -1 21G 626 130
VStem: 58 133<0 550 0 550>
LayerCount: 2
Fore
SplineSet
58 550 m 1
 191 550 l 1
 191 0 l 1
 58 0 l 1
 58 550 l 1
EndSplineSet
EndChar

StartChar: Jcircumflex
Encoding: 308 308 206
Width: 289
Flags: MW
HStem: -248 21G 750 20G<124 265 265 265> 780 21G 937 20G
VStem: 84 141
LayerCount: 2
Fore
SplineSet
124 770 m 1
 265 770 l 1
 265 2 l 2
 265 -161 129 -228 46 -254 c 1
 1 -143 l 1
 61 -126 124 -84 124 2 c 2
 124 770 l 1
106 959 m 1x30
 198 959 l 1
 356 813 l 1
 230 813 l 1
 152 890 l 1
 74 813 l 1
 -51 813 l 1
 106 959 l 1x30
EndSplineSet
EndChar

StartChar: jcircumflex
Encoding: 309 309 258
Width: 225
Flags: MW
HStem: -259 21G 514 147 580 21G 626 130 737 20G
VStem: 17 133<-22 550>
LayerCount: 2
Fore
SplineSet
17 550 m 1
 150 550 l 1
 150 -22 l 2
 150 -147 52 -239 -26 -267 c 1
 -62 -152 l 1
 -24 -147 17 -88 17 -22 c 2
 17 550 l 1
40 759 m 1
 132 759 l 1
 290 613 l 1
 164 613 l 1
 86 690 l 1
 8 613 l 1
 -117 613 l 1
 40 759 l 1
EndSplineSet
EndChar

StartChar: Nacute
Encoding: 323 323 193
Width: 727
Flags: MW
HStem: -1 21G 750 20G<63 63 507 648 648 648> 771 21G 928 20G
VStem: 63 141<0 510> 507 141<261 770 0 770>
LayerCount: 2
Fore
SplineSet
204 0 m 1
 63 0 l 1
 63 770 l 1
 194 769 l 1
 507 261 l 1
 507 770 l 1
 648 770 l 1
 648 0 l 1
 517 1 l 1
 204 510 l 1
 204 0 l 1
432 947 m 1x30
 566 947 l 1
 400 801 l 1
 301 801 l 1
 432 947 l 1x30
EndSplineSet
EndChar

StartChar: Ncaron
Encoding: 327 327 207
Width: 727
Flags: MW
HStem: -1 21G 750 20G<63 63 507 648 648 648> 776 21G 932 20G
VStem: 63 141<0 510> 507 141<261 770 0 770>
LayerCount: 2
Fore
SplineSet
204 0 m 1
 63 0 l 1
 63 770 l 1
 194 769 l 1
 507 261 l 1
 507 770 l 1
 648 770 l 1
 648 0 l 1
 517 1 l 1
 204 510 l 1
 204 0 l 1
379 805 m 1x30
 287 805 l 1
 130 951 l 1
 255 951 l 1
 333 874 l 1
 411 951 l 1
 537 951 l 1
 379 805 l 1x30
EndSplineSet
EndChar

StartChar: ncaron
Encoding: 328 328 260
Width: 609
Flags: MW
HStem: -1 21G 447 114 576 21G 732 20G
VStem: 63 135<0 339 480 550> 407 134<0 384 0 458.5>
LayerCount: 2
Fore
SplineSet
198 0 m 1
 63 0 l 1
 63 550 l 1
 198 550 l 1
 198 480 l 1
 253 521 323 561 395 561 c 0
 499 561 541 494 541 384 c 2
 541 0 l 1
 407 0 l 1
 407 384 l 2
 407 533 239 377 198 339 c 1
 198 0 l 1
350 605 m 1x30
 258 605 l 1
 101 751 l 1
 226 751 l 1
 304 674 l 1
 382 751 l 1
 508 751 l 1
 350 605 l 1x30
EndSplineSet
EndChar

StartChar: Obreve
Encoding: 334 334 208
Width: 760
Flags: MW
HStem: -7 115 665 115 786 97 786 178
VStem: 40 141<274.5 496 274.5 540.5> 566 141
LayerCount: 2
Fore
SplineSet
374 784 m 0xec
 527 784 703 695 704 386 c 1
 704 71 536 -14 371 -14 c 0
 218 -14 40 71 40 384 c 0
 40 697 218 784 374 784 c 0xec
374 677 m 0
 287 677 181 606 181 386 c 0
 181 163 287 94 371 94 c 0
 463 94 562 162 563 384 c 0
 563 603 463 677 374 677 c 0
195 964 m 1xdc
 301 964 l 1
 305 923 334 893 370 893 c 0
 400 893 428 923 433 964 c 1
 538 964 l 1
 527 872 466 816 370 816 c 0
 270 816 208 862 195 964 c 1xdc
EndSplineSet
EndChar

StartChar: obreve
Encoding: 335 335 262
Width: 591
Flags: MW
HStem: -11 101 460 101 573 97 573 178
VStem: 35 135<207.5 343.5 207.5 380> 403 135<206 341>
LayerCount: 2
Fore
SplineSet
35 275 m 0xec
 35 485 160 561 287 561 c 0
 413 561 538 484 538 275 c 0
 538 64 413 -11 287 -11 c 0
 160 -11 35 59 35 275 c 0xec
403 275 m 0
 403 407 344 461 287 461 c 0
 229 461 170 412 170 275 c 0
 170 140 229 88 287 88 c 0
 344 88 403 137 403 275 c 0
111 751 m 1xdc
 217 751 l 1
 221 710 250 680 286 680 c 0
 316 680 344 710 349 751 c 1
 454 751 l 1
 443 659 382 603 286 603 c 0
 186 603 124 649 111 751 c 1xdc
EndSplineSet
EndChar

StartChar: OE
Encoding: 338 338 119
Width: 962
Flags: MW
HStem: -7 115 0 118 343 109 652 118 665 115
VStem: -148 142 378 141 605 141
LayerCount: 2
Fore
SplineSet
918 0 m 1x6f
 479 0 l 1x6f
 474 -1 412 -14 374 -14 c 0
 220 -14 42 71 42 384 c 0
 42 697 220 784 377 784 c 0
 411 784 446 780 479 770 c 1
 776 770 l 2xb7
 836 770 905 779 905 779 c 1
 905 662 l 1
 585 662 l 1
 585 453 l 1
 857 453 l 1
 857 344 l 1
 585 344 l 1
 585 109 l 1
 789 109 l 2
 849 109 918 117 918 117 c 1
 918 0 l 1x6f
444 110 m 1
 444 661 l 1
 421 673 399 677 377 677 c 0
 290 677 183 606 183 386 c 0
 183 163 290 94 374 94 c 0
 396 94 421 100 444 110 c 1
EndSplineSet
EndChar

StartChar: oe
Encoding: 339 339 124
Width: 976
Flags: MW
HStem: -11 101 261 105<560 754 560 894 543 754> 460 101
VStem: 41 135<207.5 343.5 207.5 380> 409 134 410 134
LayerCount: 2
Fore
SplineSet
41 275 m 0xf8
 41 485 166 561 293 561 c 0
 363 561 433 537 480 480 c 1
 522 526 586 561 658 561 c 0
 876 561 894 355 894 315 c 2
 894 261 l 1
 543 261 l 1
 543 160 585 92 662 92 c 0
 685 92 733 89 817 199 c 1
 901 121 l 1
 790 -16 706 -11 662 -11 c 0
 581 -11 518 19 477 65 c 1
 430 10 362 -11 293 -11 c 0
 166 -11 41 59 41 275 c 0xf8
410 281 m 1xf4
 408 409 349 461 293 461 c 0
 236 461 176 412 176 275 c 0
 176 140 236 88 293 88 c 0
 348 88 406 135 410 264 c 1
 410 281 l 1xf4
658 458 m 0
 611 458 580 422 560 366 c 1
 754 366 l 1
 743 409 716 458 658 458 c 0
EndSplineSet
EndChar

StartChar: Racute
Encoding: 340 340 194
Width: 658
Flags: MW
HStem: -1 21G 303 105 665 115 781 21G 938 20G
VStem: 63 141<0 307 415 638 730 770> 429 138
LayerCount: 2
Fore
SplineSet
204 0 m 1
 63 0 l 1
 63 770 l 1
 204 770 l 1
 204 730 l 1
 219 748 263 784 337 784 c 0
 474 784 560 698 568 557 c 1
 567 417 497 351 417 323 c 1
 452 287 485 240 516 193 c 0
 559 129 604 64 683 0 c 1
 510 0 l 1
 462 37 429 87 394 139 c 0
 344 213 293 292 248 307 c 1
 204 307 l 1
 204 0 l 1
317 415 m 2
 365 415 428 442 429 557 c 0
 429 627 388 673 324 673 c 0
 281 673 243 661 204 638 c 1
 204 415 l 1
 317 415 l 2
362 957 m 1x18
 496 957 l 1
 330 811 l 1
 231 811 l 1
 362 957 l 1x18
EndSplineSet
EndChar

StartChar: racute
Encoding: 341 341 265
Width: 441
Flags: MW
HStem: -1 21G 451 99<62 315.5> 451 110<281 315.5> 580 21G 737 20G
VStem: 62 135<0 339 0 550>
LayerCount: 2
Fore
SplineSet
62 550 m 1xa4
 190 550 l 1xc4
 190 496 l 1
 200 516 247 561 299 561 c 0
 395 561 455 491 455 491 c 1
 365 404 l 1
 365 404 329 451 302 451 c 0
 260 451 221 390 197 339 c 1
 197 0 l 1
 62 0 l 1
 62 550 l 1xa4
244 756 m 1x18
 378 756 l 1
 212 610 l 1
 113 610 l 1
 244 756 l 1x18
EndSplineSet
EndChar

StartChar: rcaron
Encoding: 345 345 266
Width: 441
Flags: MW
HStem: -1 21G 451 99<62 315.5> 451 110<281 315.5> 576 21G 732 20G
VStem: 62 135<0 339 0 550>
LayerCount: 2
Fore
SplineSet
62 550 m 1xa4
 190 550 l 1xc4
 190 496 l 1
 200 516 247 561 299 561 c 0
 395 561 455 491 455 491 c 1
 365 404 l 1
 365 404 329 451 302 451 c 0
 260 451 221 390 197 339 c 1
 197 0 l 1
 62 0 l 1
 62 550 l 1xa4
259 605 m 1x18
 167 605 l 1
 10 751 l 1
 135 751 l 1
 213 674 l 1
 291 751 l 1
 417 751 l 1
 259 605 l 1x18
EndSplineSet
EndChar

StartChar: Sacute
Encoding: 346 346 195
Width: 623
Flags: MW
HStem: -10 112 668 112 781 21G 938 20G
VStem: 53 137 452 137
LayerCount: 2
Fore
SplineSet
30 151 m 1
 128 237 l 1
 186 144 243 99 318 98 c 0
 385 98 442 137 442 216 c 0
 442 295 371 317 294 341 c 0
 172 378 59 421 61 563 c 0
 64 753 225 784 301 784 c 0
 406 784 477 746 538 674 c 1
 446 595 l 1
 401 641 359 672 301 672 c 0
 268 672 204 657 200 562 c 0
 197 500 263 476 334 456 c 1
 455 418 581 369 581 216 c 0
 581 61 454 -14 315 -14 c 1
 188 -10 101 39 30 151 c 1
362 957 m 1x30
 496 957 l 1
 330 811 l 1
 231 811 l 1
 362 957 l 1x30
EndSplineSet
EndChar

StartChar: Scircumflex
Encoding: 348 348 210
Width: 623
Flags: MW
HStem: -10 112 668 112 784 21G<263 353.5> 941 20G
VStem: 53 137 452 137
LayerCount: 2
Fore
SplineSet
30 151 m 1
 128 237 l 1
 186 144 243 99 318 98 c 0
 385 98 442 137 442 216 c 0
 442 295 371 317 294 341 c 0
 172 378 59 421 61 563 c 0
 64 753 225 784 301 784 c 0
 406 784 477 746 538 674 c 1
 446 595 l 1
 401 641 359 672 301 672 c 0
 268 672 204 657 200 562 c 0
 197 500 263 476 334 456 c 1
 455 418 581 369 581 216 c 0
 581 61 454 -14 315 -14 c 1
 188 -10 101 39 30 151 c 1
263 963 m 1x30
 355 963 l 1
 513 817 l 1
 387 817 l 1
 309 894 l 1
 231 817 l 1
 106 817 l 1
 263 963 l 1x30
EndSplineSet
EndChar

StartChar: scircumflex
Encoding: 349 349 269
Width: 507
Flags: MW
HStem: -11 101<255 274 255 305.5> 460 101<233.5 261> 580 21G 737 20G
VStem: 54 131 329 131
LayerCount: 2
Fore
SplineSet
185 397 m 0
 185 364 229 351 272 337 c 0
 364 309 463 279 463 159 c 0
 463 43 358 -11 253 -11 c 0
 168 -11 75 31 21 115 c 1
 116 191 l 1
 150 128 206 91 255 90 c 0
 293 90 329 112 329 159 c 0
 329 201 278 218 233 232 c 0
 148 257 51 294 51 397 c 0
 51 537 185 561 243 561 c 0
 320 561 390 530 438 483 c 1
 353 402 l 1
 321 438 279 460 243 460 c 0
 224 460 185 451 185 397 c 0
193 759 m 1x30
 285 759 l 1
 443 613 l 1
 317 613 l 1
 239 690 l 1
 161 613 l 1
 36 613 l 1
 193 759 l 1x30
EndSplineSet
EndChar

StartChar: Scaron
Encoding: 352 352 209
Width: 623
Flags: MW
HStem: -10 112 668 112 786 21G 942 20G
VStem: 53 137 452 137
LayerCount: 2
Fore
SplineSet
30 151 m 1
 128 237 l 1
 186 144 243 99 318 98 c 0
 385 98 442 137 442 216 c 0
 442 295 371 317 294 341 c 0
 172 378 59 421 61 563 c 0
 64 753 225 784 301 784 c 0
 406 784 477 746 538 674 c 1
 446 595 l 1
 401 641 359 672 301 672 c 0
 268 672 204 657 200 562 c 0
 197 500 263 476 334 456 c 1
 455 418 581 369 581 216 c 0
 581 61 454 -14 315 -14 c 1
 188 -10 101 39 30 151 c 1
341 815 m 1x30
 249 815 l 1
 92 961 l 1
 217 961 l 1
 295 884 l 1
 373 961 l 1
 499 961 l 1
 341 815 l 1x30
EndSplineSet
EndChar

StartChar: scaron
Encoding: 353 353 268
Width: 507
Flags: MW
HStem: -11 101<255 274 255 305.5> 460 101<233.5 261> 576 21G 732 20G
VStem: 54 131 329 131
LayerCount: 2
Fore
SplineSet
185 397 m 0
 185 364 229 351 272 337 c 0
 364 309 463 279 463 159 c 0
 463 43 358 -11 253 -11 c 0
 168 -11 75 31 21 115 c 1
 116 191 l 1
 150 128 206 91 255 90 c 0
 293 90 329 112 329 159 c 0
 329 201 278 218 233 232 c 0
 148 257 51 294 51 397 c 0
 51 537 185 561 243 561 c 0
 320 561 390 530 438 483 c 1
 353 402 l 1
 321 438 279 460 243 460 c 0
 224 460 185 451 185 397 c 0
287 605 m 1x30
 195 605 l 1
 38 751 l 1
 163 751 l 1
 241 674 l 1
 319 751 l 1
 445 751 l 1
 287 605 l 1x30
EndSplineSet
EndChar

StartChar: Tcaron
Encoding: 356 356 211
Width: 561
Flags: MW
HStem: -1 21G 661 109<-12 561 -12 202 343 343 343 561> 786 21G 942 20G
VStem: 202 141<0 661 0 661>
LayerCount: 2
Fore
SplineSet
-12 661 m 1
 -12 770 l 1
 561 770 l 1
 561 661 l 1
 343 661 l 1
 343 0 l 1
 202 0 l 1
 202 661 l 1
 -12 661 l 1
323 815 m 1x30
 231 815 l 1
 74 961 l 1
 199 961 l 1
 277 884 l 1
 355 961 l 1
 481 961 l 1
 323 815 l 1x30
EndSplineSet
EndChar

StartChar: Utilde
Encoding: 360 360 213
Width: 688
Flags: MW
HStem: -11 109<314.5 359 314.5 382> 750 20G<62 204 204 204 469 610 610 610> 831 98 876 98
VStem: 49 141 483 141
LayerCount: 2
Fore
SplineSet
610 246 m 1xcc
 609 15 427 -11 337 -11 c 0
 246 -11 63 17 62 246 c 1
 62 770 l 1
 204 770 l 1
 204 248 l 2
 204 116 292 98 337 98 c 0
 381 98 468 119 469 246 c 1
 469 770 l 1
 610 770 l 1
 610 246 l 1xcc
500 996 m 1x20
 549 899 l 1
 549 899 498 836 417 831 c 0x20
 352 826 303 876 235 876 c 1
 196 874 145 811 145 811 c 1
 98 906 l 1
 98 906 148 969 229 974 c 0x10
 296 979 351 929 411 929 c 1
 450 931 500 996 500 996 c 1x20
EndSplineSet
EndChar

StartChar: utilde
Encoding: 361 361 274
Width: 609
Flags: MW
HStem: -11 114 16 20G 530 20G<49 184 184 184 392 527 527 527> 586 98 631 98
VStem: 49 135<166 550> 392 135<0 79 79 79 211 550 0 550>
LayerCount: 2
Fore
SplineSet
184 166 m 1x66
 175 15 352 170 392 211 c 1
 392 550 l 1
 527 550 l 1
 527 0 l 1
 392 0 l 1
 392 79 l 1
 376 50 293 -11 196 -11 c 0xa6
 91 -11 49 56 49 166 c 2
 49 550 l 1
 184 550 l 1
 184 166 l 1x66
469 751 m 1x10
 518 654 l 1
 518 654 467 591 386 586 c 0x10
 321 581 272 631 204 631 c 1
 165 629 114 566 114 566 c 1
 67 661 l 1
 67 661 117 724 198 729 c 0x08
 265 734 320 684 380 684 c 1
 419 686 469 751 469 751 c 1x10
EndSplineSet
EndChar

StartChar: Ubreve
Encoding: 364 364 212
Width: 688
Flags: MW
HStem: -11 109<314.5 359 314.5 382> 750 20G<62 204 204 204 469 610 610 610> 776 97 776 178
VStem: 49 141 483 141
LayerCount: 2
Fore
SplineSet
610 246 m 1xec
 609 15 427 -11 337 -11 c 0
 246 -11 63 17 62 246 c 1
 62 770 l 1
 204 770 l 1
 204 248 l 2
 204 116 292 98 337 98 c 0
 381 98 468 119 469 246 c 1
 469 770 l 1
 610 770 l 1
 610 246 l 1xec
163 954 m 1xdc
 269 954 l 1
 273 913 302 883 338 883 c 0
 368 883 396 913 401 954 c 1
 506 954 l 1
 495 862 434 806 338 806 c 0
 238 806 176 852 163 954 c 1xdc
EndSplineSet
EndChar

StartChar: ubreve
Encoding: 365 365 271
Width: 609
Flags: MW
HStem: -11 114 16 20G 530 20G<49 184 184 184 392 527 527 527> 573 97 573 178
VStem: 49 135<166 550> 392 135<0 79 79 79 211 550 0 550>
LayerCount: 2
Fore
SplineSet
184 166 m 1x76
 175 15 352 170 392 211 c 1
 392 550 l 1
 527 550 l 1
 527 0 l 1
 392 0 l 1
 392 79 l 1
 376 50 293 -11 196 -11 c 0xb6
 91 -11 49 56 49 166 c 2
 49 550 l 1
 184 550 l 1
 184 166 l 1x76
108 751 m 1x6e
 214 751 l 1
 218 710 247 680 283 680 c 0
 313 680 341 710 346 751 c 1
 451 751 l 1
 440 659 379 603 283 603 c 0
 183 603 121 649 108 751 c 1x6e
EndSplineSet
EndChar

StartChar: Uring
Encoding: 366 366 214
Width: 688
Flags: MW
HStem: -11 109<314.5 359 314.5 382> 750 20G<62 204 204 204 469 610 610 610> 792 82 926 81
VStem: 49 141 215 103 349 102 483 141
LayerCount: 2
Fore
SplineSet
610 246 m 1
 609 15 427 -11 337 -11 c 0
 246 -11 63 17 62 246 c 1
 62 770 l 1
 204 770 l 1
 204 248 l 2
 204 116 292 98 337 98 c 0
 381 98 468 119 469 246 c 1
 469 770 l 1
 610 770 l 1
 610 246 l 1
320 915 m 0x36
 320 899 328 887 337 887 c 0
 345 887 352 899 352 915 c 0
 352 927 345 939 337 939 c 0
 328 939 320 927 320 915 c 0x36
228 915 m 0
 228 968 276 1012 335 1012 c 0
 394 1012 442 968 442 915 c 0
 442 862 394 818 335 818 c 0
 276 818 228 862 228 915 c 0
EndSplineSet
EndChar

StartChar: uring
Encoding: 367 367 273
Width: 609
Flags: MW
HStem: -11 114 16 20G 530 20G<49 184 184 184 392 527 527 527> 569 82 703 81
VStem: 49 135<166 550> 162 103 296 102 392 135<0 79 79 79 211 550 0 550>
LayerCount: 2
Fore
SplineSet
184 166 m 1x6480
 175 15 352 170 392 211 c 1
 392 550 l 1
 527 550 l 1
 527 0 l 1
 392 0 l 1
 392 79 l 1
 376 50 293 -11 196 -11 c 0xa480
 91 -11 49 56 49 166 c 2
 49 550 l 1
 184 550 l 1
 184 166 l 1x6480
267 692 m 0x1b
 267 676 275 664 284 664 c 0
 292 664 299 676 299 692 c 0
 299 704 292 716 284 716 c 0
 275 716 267 704 267 692 c 0x1b
175 692 m 0
 175 745 223 789 282 789 c 0
 341 789 389 745 389 692 c 0
 389 639 341 595 282 595 c 0
 223 595 175 639 175 692 c 0
EndSplineSet
EndChar

StartChar: uogonek
Encoding: 371 371 272
Width: 609
Flags: MW
HStem: -149 88<469 476 469 495> -11 114 16 20G 65 20G 530 20G<49 184 184 184 392 527 527 527>
VStem: 49 135<166 550> 352 108<-51 -21.5 -51 -16.5> 392 135<0 79 79 79 211 550 0 550>
LayerCount: 2
Fore
SplineSet
184 166 m 1x2d
 175 15 352 170 392 211 c 1
 392 550 l 1
 527 550 l 1
 527 0 l 1
 392 0 l 1
 392 79 l 1
 376 50 293 -11 196 -11 c 0x4d
 91 -11 49 56 49 166 c 2
 49 550 l 1
 184 550 l 1
 184 166 l 1x2d
352 -48 m 0x92
 352 15 455 91 455 91 c 1
 527 48 l 1
 527 48 460 3 460 -46 c 0
 460 -56 467 -61 471 -61 c 0
 481 -61 500 -44 520 -19 c 1
 594 -87 l 1
 563 -122 519 -149 471 -149 c 0
 419 -149 352 -116 352 -48 c 0x92
EndSplineSet
EndChar

StartChar: Wcircumflex
Encoding: 372 372 199
Width: 981
Flags: MW
HStem: -1 21G 750 20G<4 148 148 148 411 547 547 547 810 955 955 955> 770 21G<4 148 148 148 411 547 547 547 810 955 955 955> 927 20G
LayerCount: 2
Fore
SplineSet
339 0 m 1xc0
 222 0 l 1
 4 770 l 1
 148 770 l 1
 280 273 l 1
 411 770 l 1
 547 770 l 1
 678 271 l 1
 810 770 l 1
 955 770 l 1
 737 0 l 1
 620 0 l 1
 479 492 l 1
 339 0 l 1xc0
443 949 m 1x30
 535 949 l 1
 693 803 l 1
 567 803 l 1
 489 880 l 1
 411 803 l 1
 286 803 l 1
 443 949 l 1x30
EndSplineSet
EndChar

StartChar: Ycircumflex
Encoding: 374 374 239
Width: 620
Flags: MW
HStem: -1 21G 750 20G<-23 135 135 135 475 629 629 629> 778 21G 935 20G
VStem: 234 140<0 368 0 368>
LayerCount: 2
Fore
SplineSet
475 770 m 1
 629 770 l 1
 374 368 l 1
 374 0 l 1
 234 0 l 1
 234 368 l 1
 -23 770 l 1
 135 770 l 1
 305 505 l 1
 475 770 l 1
262 957 m 1x30
 354 957 l 1
 512 811 l 1
 386 811 l 1
 308 888 l 1
 230 811 l 1
 105 811 l 1
 262 957 l 1x30
EndSplineSet
EndChar

StartChar: ycircumflex
Encoding: 375 375 190
Width: 518
Flags: MW
HStem: -259 21G<4 4> 530 20G<-9 131 131 131 397 551 551 551> 580 21G 737 20G
LayerCount: 2
Fore
SplineSet
-9 550 m 1
 131 550 l 1
 250 244 l 1
 309 387 372 528 397 550 c 1
 551 550 l 1
 504 504 471 439 281 -25 c 0
 259 -80 230 -147 179 -195 c 1
 124 -249 53 -256 4 -259 c 1
 -26 -155 l 1
 48 -151 70 -136 86 -119 c 1
 104 -103 124 -68 155 8 c 1
 162 28 169 46 177 65 c 1
 -9 550 l 1
206 759 m 1x30
 298 759 l 1
 456 613 l 1
 330 613 l 1
 252 690 l 1
 174 613 l 1
 49 613 l 1
 206 759 l 1x30
EndSplineSet
EndChar

StartChar: Ydieresis
Encoding: 376 376 240
Width: 620
Flags: MW
HStem: -1 21G 750 20G<-23 135 135 135 475 629 629 629> 776 135
VStem: 137 156 234 140<0 368 0 368> 329 155
LayerCount: 2
Fore
SplineSet
475 770 m 1xc8
 629 770 l 1
 374 368 l 1
 374 0 l 1
 234 0 l 1
 234 368 l 1
 -23 770 l 1
 135 770 l 1
 305 505 l 1
 475 770 l 1xc8
147 880 m 0x34
 147 918 171 947 216 947 c 0
 259 947 283 918 283 880 c 0
 283 841 259 812 216 812 c 0
 171 812 147 841 147 880 c 0x34
339 880 m 0
 339 918 363 947 407 947 c 0
 453 947 474 918 474 880 c 0
 474 841 453 812 407 812 c 0
 363 812 339 841 339 880 c 0
EndSplineSet
EndChar

StartChar: Zacute
Encoding: 377 377 197
Width: 616
Flags: MW
HStem: 0 114<201 433> 656 114<38 383 38 554> 781 21G 938 20G
LayerCount: 2
Fore
SplineSet
574 143 m 1
 574 25 l 1
 528 0 433 0 433 0 c 1
 28 0 l 1
 28 98 l 1
 383 656 l 1
 38 656 l 1
 38 770 l 1
 554 770 l 1
 554 674 l 1
 201 114 l 1
 435 114 l 1
 435 114 495 114 574 143 c 1
352 957 m 1x30
 486 957 l 1
 320 811 l 1
 221 811 l 1
 352 957 l 1x30
EndSplineSet
EndChar

StartChar: zacute
Encoding: 378 378 280
Width: 521
Flags: MW
HStem: 0 102<195 390> 449 101<29 304 29 470> 580 21G 737 20G
LayerCount: 2
Fore
SplineSet
486 131 m 1
 486 27 l 1
 462 0 390 0 390 0 c 1
 29 0 l 1
 29 87 l 1
 304 449 l 1
 29 449 l 1
 29 550 l 1
 470 550 l 1
 470 464 l 1
 195 102 l 1
 391 102 l 1
 391 102 449 102 486 131 c 1
322 756 m 1x30
 456 756 l 1
 290 610 l 1
 191 610 l 1
 322 756 l 1x30
EndSplineSet
EndChar

StartChar: Zcaron
Encoding: 381 381 231
Width: 616
Flags: MW
HStem: 0 114<201 433> 656 114<38 383 38 554> 784 21G 940 20G
LayerCount: 2
Fore
SplineSet
574 143 m 1
 574 25 l 1
 528 0 433 0 433 0 c 1
 28 0 l 1
 28 98 l 1
 383 656 l 1
 38 656 l 1
 38 770 l 1
 554 770 l 1
 554 674 l 1
 201 114 l 1
 435 114 l 1
 435 114 495 114 574 143 c 1
364 813 m 1x30
 272 813 l 1
 115 959 l 1
 240 959 l 1
 318 882 l 1
 396 959 l 1
 522 959 l 1
 364 813 l 1x30
EndSplineSet
EndChar

StartChar: zcaron
Encoding: 382 382 281
Width: 521
Flags: MW
HStem: 0 102<195 390> 449 101<29 304 29 470> 576 21G 732 20G
LayerCount: 2
Fore
SplineSet
486 131 m 1
 486 27 l 1
 462 0 390 0 390 0 c 1
 29 0 l 1
 29 87 l 1
 304 449 l 1
 29 449 l 1
 29 550 l 1
 470 550 l 1
 470 464 l 1
 195 102 l 1
 391 102 l 1
 391 102 449 102 486 131 c 1
306 605 m 1x30
 214 605 l 1
 57 751 l 1
 182 751 l 1
 260 674 l 1
 338 751 l 1
 464 751 l 1
 306 605 l 1x30
EndSplineSet
EndChar

StartChar: AEacute
Encoding: 508 508 219
Width: 983
Flags: MW
HStem: -1 21G 250 108<348 464 348 464 289 464> 343 109 750 20G<423 796 796 826> 755 20G 783 21G 940 20G
VStem: 663 141
LayerCount: 2
Fore
SplineSet
938 0 m 1xa9
 464 0 l 1
 464 250 l 1
 289 250 l 1xc9
 244 169 192 80 149 0 c 1
 -2 0 l 1
 423 770 l 1
 796 770 l 2xb1
 856 770 924 779 924 779 c 1
 924 662 l 1
 605 662 l 1
 605 453 l 1
 877 453 l 1
 877 344 l 1
 605 344 l 1
 605 109 l 1
 809 109 l 2
 869 109 938 117 938 117 c 1
 938 0 l 1xa9
464 564 m 1
 348 358 l 1
 464 358 l 1
 464 564 l 1
587 959 m 1x06
 721 959 l 1
 555 813 l 1
 456 813 l 1
 587 959 l 1x06
EndSplineSet
EndChar

StartChar: aeacute
Encoding: 509 509 215
Width: 901
Flags: MW
HStem: -11 101<213 213> -11 105 261 105<489 682 489 823 472 682> 456 105 461 100 580 21G 737 20G
VStem: -38 134 273 132 459 135
LayerCount: 2
Fore
SplineSet
324 561 m 0
 381 561 420 539 442 511 c 1
 479 541 531 561 587 561 c 0
 805 561 823 355 823 315 c 2
 823 261 l 1
 472 261 l 1
 472 160 513 92 591 92 c 0
 613 92 662 89 746 199 c 1
 829 121 l 1
 719 -16 635 -11 591 -11 c 0
 508 -11 445 21 404 67 c 1
 349 16 281 -11 213 -11 c 0
 189 -11 40 0 40 147 c 0
 40 220 71 307 249 333 c 1
 318 342 320 341 343 347 c 1
 343 396 l 2
 343 411 340 453 313 453 c 0
 252 453 151 399 126 385 c 1
 94 369 l 1
 94 369 79 398 74 408 c 0
 63 430 46 463 60 476 c 1
 95 496 209 561 324 561 c 0
212 90 m 0
 262 86 319 122 354 162 c 1
 346 189 344 215 343 243 c 1
 265 232 l 1
 266 232 l 1
 185 219 173 182 173 147 c 0
 173 97 204 91 212 90 c 0
587 458 m 0
 539 458 508 422 489 366 c 1
 682 366 l 1
 671 409 645 458 587 458 c 0
483 756 m 1
 617 756 l 1
 451 610 l 1
 352 610 l 1
 483 756 l 1
EndSplineSet
EndChar

StartChar: dotlessj
Encoding: 567 567 257
Width: 225
Flags: MW
HStem: -259 21G 514 147 626 130
VStem: 17 133<-22 550>
LayerCount: 2
Fore
SplineSet
17 550 m 1
 150 550 l 1
 150 -22 l 2
 150 -147 52 -239 -26 -267 c 1
 -62 -152 l 1
 -24 -147 17 -88 17 -22 c 2
 17 550 l 1
EndSplineSet
EndChar

StartChar: circumflex
Encoding: 710 710 101
Width: 501
Flags: MW
HStem: 580 21G 737 20G
LayerCount: 2
Fore
SplineSet
199 759 m 1
 291 759 l 1
 449 613 l 1
 323 613 l 1
 245 690 l 1
 167 613 l 1
 42 613 l 1
 199 759 l 1
EndSplineSet
EndChar

StartChar: caron
Encoding: 711 711 110
Width: 501
Flags: MW
HStem: 576 21G 732 20G
LayerCount: 2
Fore
SplineSet
291 605 m 1
 199 605 l 1
 42 751 l 1
 167 751 l 1
 245 674 l 1
 323 751 l 1
 449 751 l 1
 291 605 l 1
EndSplineSet
EndChar

StartChar: breve
Encoding: 728 728 117
Width: 438
Flags: MW
HStem: 573 97 573 178
LayerCount: 2
Fore
SplineSet
53 751 m 1
 159 751 l 1
 163 710 192 680 228 680 c 0
 258 680 286 710 291 751 c 1
 396 751 l 1
 385 659 324 603 228 603 c 0
 128 603 66 649 53 751 c 1
EndSplineSet
EndChar

StartChar: dotaccent
Encoding: 729 729 121
Width: 196
Flags: MW
HStem: 636 134<74.5 119>
VStem: 19 155<683.5 722>
LayerCount: 2
Fore
SplineSet
19 703 m 0
 19 741 52 770 97 770 c 0
 141 770 174 741 174 703 c 0
 174 664 141 636 97 636 c 0
 52 636 19 664 19 703 c 0
EndSplineSet
EndChar

StartChar: ring
Encoding: 730 730 115
Width: 321
Flags: MW
HStem: 569 82 703 81
VStem: 39 103 173 102
LayerCount: 2
Fore
SplineSet
144 692 m 0
 144 676 152 664 161 664 c 0
 169 664 176 676 176 692 c 0
 176 704 169 716 161 716 c 0
 152 716 144 704 144 692 c 0
52 692 m 0
 52 745 100 789 159 789 c 0
 218 789 266 745 266 692 c 0
 266 639 218 595 159 595 c 0
 100 595 52 639 52 692 c 0
EndSplineSet
EndChar

StartChar: ogonek
Encoding: 731 731 127
Width: 323
Flags: MW
HStem: -149 88<156 163 156 182> 65 20G
VStem: 39 108<-51 -21.5 -51 -16.5>
LayerCount: 2
Fore
SplineSet
39 -48 m 0
 39 15 142 91 142 91 c 1
 214 48 l 1
 214 48 147 3 147 -46 c 0
 147 -56 154 -61 158 -61 c 0
 168 -61 187 -44 207 -19 c 1
 281 -87 l 1
 250 -122 206 -149 158 -149 c 0
 106 -149 39 -116 39 -48 c 0
EndSplineSet
EndChar

StartChar: tilde
Encoding: 732 732 105
Width: 542
Flags: MW
HStem: 586 98 631 98
LayerCount: 2
Fore
SplineSet
442 751 m 1x80
 491 654 l 1
 491 654 440 591 359 586 c 0x80
 294 581 245 631 177 631 c 1
 138 629 87 566 87 566 c 1
 40 661 l 1
 40 661 90 724 171 729 c 0x40
 238 734 293 684 353 684 c 1
 392 686 442 751 442 751 c 1x80
EndSplineSet
EndChar

StartChar: hungarumlaut
Encoding: 733 733 116
Width: 496
Flags: MW
HStem: 581 176<16 344 16 344 148 344 174 276>
LayerCount: 2
Fore
SplineSet
174 757 m 1
 344 757 l 1
 144 581 l 1
 16 581 l 1
 174 757 l 1
305 757 m 1
 476 757 l 1
 276 581 l 1
 148 581 l 1
 305 757 l 1
EndSplineSet
EndChar

StartChar: Wgrave
Encoding: 7808 7808 229
Width: 981
Flags: MW
HStem: -1 21G 750 20G<4 148 148 148 411 547 547 547 810 955 955 955> 784 21G 953 20G
LayerCount: 2
Fore
SplineSet
339 0 m 1
 222 0 l 1
 4 770 l 1
 148 770 l 1
 280 273 l 1
 411 770 l 1
 547 770 l 1
 678 271 l 1
 810 770 l 1
 955 770 l 1
 737 0 l 1
 620 0 l 1
 479 492 l 1
 339 0 l 1
259 959 m 1x30
 393 959 l 1
 524 813 l 1
 425 813 l 1
 259 959 l 1x30
EndSplineSet
EndChar

StartChar: wgrave
Encoding: 7809 7809 278
Width: 782
Flags: MW
HStem: -1 21G 530 20G<6 148 148 148 318 432 432 432 633 769 769 769> 581 21G 750 20G
LayerCount: 2
Fore
SplineSet
285 0 m 1
 165 0 l 1
 6 550 l 1
 148 550 l 1
 230 241 l 1
 318 550 l 1
 432 550 l 1
 520 239 l 1
 557 377 606 535 633 550 c 1
 769 550 l 1
 721 502 580 0 580 0 c 1
 467 0 l 1
 376 315 l 1
 285 0 l 1
167 756 m 1x30
 301 756 l 1
 432 610 l 1
 333 610 l 1
 167 756 l 1x30
EndSplineSet
EndChar

StartChar: Wacute
Encoding: 7810 7810 196
Width: 981
Flags: MW
HStem: -1 21G 750 20G<4 148 148 148 411 547 547 547 810 955 955 955> 781 21G 938 20G
LayerCount: 2
Fore
SplineSet
339 0 m 1
 222 0 l 1
 4 770 l 1
 148 770 l 1
 280 273 l 1
 411 770 l 1
 547 770 l 1
 678 271 l 1
 810 770 l 1
 955 770 l 1
 737 0 l 1
 620 0 l 1
 479 492 l 1
 339 0 l 1
557 957 m 1x30
 691 957 l 1
 525 811 l 1
 426 811 l 1
 557 957 l 1x30
EndSplineSet
EndChar

StartChar: wdieresis
Encoding: 7813 7813 277
Width: 782
Flags: MW
HStem: -1 21G 530 20G<6 148 148 148 318 432 432 432 633 769 769 769> 581 135
VStem: 202 156 394 155
LayerCount: 2
Fore
SplineSet
285 0 m 1
 165 0 l 1
 6 550 l 1
 148 550 l 1
 230 241 l 1
 318 550 l 1
 432 550 l 1
 520 239 l 1
 557 377 606 535 633 550 c 1
 769 550 l 1
 721 502 580 0 580 0 c 1
 467 0 l 1
 376 315 l 1
 285 0 l 1
212 685 m 0x38
 212 723 236 752 281 752 c 0
 324 752 348 723 348 685 c 0
 348 646 324 617 281 617 c 0
 236 617 212 646 212 685 c 0x38
404 685 m 0
 404 723 428 752 472 752 c 0
 518 752 539 723 539 685 c 0
 539 646 518 617 472 617 c 0
 428 617 404 646 404 685 c 0
EndSplineSet
EndChar

StartChar: endash
Encoding: 8211 8211 26
Width: 664
Flags: MW
HStem: 232 98<34 616 34 616>
LayerCount: 2
Fore
SplineSet
616 330 m 1
 616 232 l 1
 34 232 l 1
 34 330 l 1
 616 330 l 1
EndSplineSet
EndChar

StartChar: emdash
Encoding: 8212 8212 92
Width: 794
Flags: MW
HStem: 232 98<35 741 35 741>
LayerCount: 2
Fore
SplineSet
741 330 m 1
 741 232 l 1
 35 232 l 1
 35 330 l 1
 741 330 l 1
EndSplineSet
EndChar

StartChar: quoteleft
Encoding: 8216 8216 97
Width: 210
Flags: MW
HStem: 511 21G 768 20G<105 105>
VStem: 19 168<581 598.5 561.5 608>
LayerCount: 2
Fore
SplineSet
187 582 m 0
 187 541 152 512 106 512 c 0
 45 512 19 554 19 608 c 0
 20 662 52 723 105 788 c 1
 182 741 l 1
 155 707 142 681 133 649 c 1
 168 639 187 615 187 582 c 0
EndSplineSet
EndChar

StartChar: quoteright
Encoding: 8217 8217 98
Width: 210
Flags: MW
HStem: 492 21G 749 20G<77.5 131.5>
VStem: 19 168<682.5 700 673 719.5>
LayerCount: 2
Fore
SplineSet
19 699 m 0
 19 740 54 769 101 769 c 0
 162 769 187 727 187 673 c 0
 186 618 154 558 102 493 c 1
 24 540 l 1
 52 574 64 599 73 632 c 1
 38 641 19 666 19 699 c 0
EndSplineSet
EndChar

StartChar: quotedblleft
Encoding: 8220 8220 79
Width: 381
Flags: MW
HStem: 501 142 750 20G
VStem: 23 168 186 168
LayerCount: 2
Fore
SplineSet
169 582 m 0
 169 541 134 512 88 512 c 0
 27 512 1 554 1 608 c 0
 2 662 34 723 87 788 c 1
 164 741 l 1
 137 707 124 681 115 649 c 1
 150 639 169 615 169 582 c 0
372 582 m 0
 372 541 337 512 290 512 c 0
 229 512 204 554 204 608 c 0
 205 662 237 723 290 788 c 1
 367 741 l 1
 340 707 327 681 318 649 c 1
 353 639 372 615 372 582 c 0
EndSplineSet
EndChar

StartChar: bullet
Encoding: 8226 8226 106
Width: 343
Flags: MW
HStem: 115 256<130 209>
VStem: 30 276<208 281>
LayerCount: 2
Fore
SplineSet
30 245 m 0
 30 317 90 371 170 371 c 0
 248 371 306 317 306 245 c 0
 306 171 248 115 170 115 c 0
 90 115 30 171 30 245 c 0
EndSplineSet
EndChar

StartChar: ellipsis
Encoding: 8230 8230 103
Width: 619
Flags: MW
HStem: -7 142
VStem: 27 163 219 163 410 163
LayerCount: 2
Fore
SplineSet
24 71 m 0
 24 115 62 148 112 148 c 0
 162 148 199 115 199 71 c 0
 199 27 162 -7 112 -7 c 0
 62 -7 24 27 24 71 c 0
215 71 m 0
 215 115 253 148 304 148 c 0
 353 148 390 115 390 71 c 0
 390 27 353 -7 304 -7 c 0
 253 -7 215 27 215 71 c 0
407 71 m 0
 407 115 445 148 495 148 c 0
 545 148 582 115 582 71 c 0
 582 27 545 -7 495 -7 c 0
 445 -7 407 27 407 71 c 0
EndSplineSet
EndChar

StartChar: trademark
Encoding: 8482 8482 102
Width: 880
Flags: MW
HStem: -1 21G 661 109 750 20G
VStem: 50 141 433 141 998 141
LayerCount: 2
Fore
SplineSet
530 373 m 1
 407 373 l 1
 407 751 l 1
 521 751 l 1
 625 524 l 1
 726 751 l 1
 840 751 l 1
 840 373 l 1
 715 373 l 1
 715 467 l 1
 677 373 l 1
 570 373 l 1
 530 470 l 1
 530 373 l 1
36 660 m 1
 36 751 l 1
 395 751 l 1
 395 660 l 1
 278 660 l 1
 278 373 l 1
 153 373 l 1
 153 660 l 1
 36 660 l 1
EndSplineSet
EndChar

StartChar: minus
Encoding: 8722 8722 93
Width: 663
Flags: MW
HStem: 231 100<34 615 34 615>
LayerCount: 2
Fore
SplineSet
615 331 m 1
 615 231 l 1
 34 231 l 1
 34 331 l 1
 615 331 l 1
EndSplineSet
EndChar

StartChar: Acute
Encoding: 63177 63177 166
Width: 348
Flags: MW
HStem: 580 21G 737 20G
LayerCount: 2
Fore
SplineSet
157 930 m 1
 288 930 l 1
 137 804 l 1
 50 804 l 1
 157 930 l 1
EndSplineSet
EndChar

StartChar: Dieresis
Encoding: 63179 63179 156
Width: 437
Flags: MW
HStem: 581 135
VStem: 40 156 232 155
LayerCount: 2
Fore
SplineSet
50 860 m 0
 50 898 74 927 119 927 c 0
 162 927 186 898 186 860 c 0
 186 821 162 792 119 792 c 0
 74 792 50 821 50 860 c 0
242 860 m 0
 242 898 266 927 310 927 c 0
 356 927 377 898 377 860 c 0
 377 821 356 792 310 792 c 0
 266 792 242 821 242 860 c 0
EndSplineSet
EndChar

StartChar: ff
Encoding: 64256 64256 148
Width: 657
Flags: MW
HStem: -1 21G 449 101<12 78 12 78 212 332 466 617> 706 101<233 264 486.5 524>
VStem: 78 134<0 449 0 449 550 622> 332 134<0 449 0 449 550 622>
LayerCount: 2
Fore
SplineSet
466 622 m 1
 466 550 l 1
 617 550 l 1
 617 449 l 1
 466 449 l 1
 466 0 l 1
 332 0 l 1
 332 449 l 1
 212 449 l 1
 212 0 l 1
 78 0 l 1
 78 449 l 1
 12 449 l 1
 12 550 l 1
 78 550 l 1
 78 622 l 2
 78 729 123 807 251 807 c 0
 300 807 351 787 385 769 c 1
 412 791 453 807 505 807 c 0
 591 807 702 732 702 732 c 1
 625 655 l 1
 625 655 543 706 505 706 c 0
 468 706 467 669 466 622 c 1
212 622 m 1
 212 550 l 1
 332 550 l 1
 332 622 l 2
 332 640 333 657 337 675 c 1
 316 687 277 706 251 706 c 0
 215 706 213 669 212 622 c 1
EndSplineSet
Ligature2: "'liga' Standard Ligatures in Latin lookup 2 subtable" f f
EndChar

StartChar: fi
Encoding: 64257 64257 104
Width: 585
Flags: MW
HStem: -1 21G 449 101<13 80 13 80 214 370> 626 130 706 101<240.5 285.5>
VStem: 80 134<0 449 0 449 550 622> 388 134
LayerCount: 2
Fore
SplineSet
214 622 m 1xec
 214 550 l 1
 504 550 l 1
 504 0 l 1
 370 0 l 1
 370 449 l 1
 214 449 l 1
 214 0 l 1
 80 0 l 1
 80 449 l 1
 13 449 l 1
 13 550 l 1
 80 550 l 1
 80 622 l 2
 80 729 132 807 259 807 c 0
 368 807 497 707 497 707 c 1
 420 630 l 1
 420 630 311 706 260 706 c 0xdc
 221 706 215 669 214 622 c 1xec
EndSplineSet
Ligature2: "'liga' Standard Ligatures in Latin lookup 2 subtable" f i
EndChar

StartChar: fl
Encoding: 64258 64258 120
Width: 622
Flags: MW
HStem: -13 21G 449 101<15 81 15 81 215 367> 706 101<236 273.5> 783 20G<381 514 514 514>
VStem: 81 134<0 449 0 449 550 622> 405 134
LayerCount: 2
Fore
SplineSet
381 803 m 1xdc
 514 803 l 1
 514 154 l 2
 514 135 514 109 518 105 c 0
 528 94 552 91 587 91 c 1
 583 -11 l 1
 539 -11 455 -7 422 26 c 0
 381 67 381 118 381 154 c 2
 381 803 l 1xdc
215 622 m 1
 215 550 l 1
 367 550 l 1
 367 449 l 1
 215 449 l 1
 215 0 l 1
 81 0 l 1
 81 449 l 1
 15 449 l 1
 15 550 l 1
 81 550 l 1
 81 622 l 2
 81 729 126 807 254 807 c 0
 299 807 355 785 397 764 c 1
 397 640 l 1
 397 640 293 706 254 706 c 0xec
 218 706 216 669 215 622 c 1
EndSplineSet
Ligature2: "'liga' Standard Ligatures in Latin lookup 2 subtable" f l
EndChar

StartChar: f_f_i
Encoding: 64259 64259 149
Width: 856
Flags: MW
HStem: -1 21G 449 101<18 84 18 84 218 338 471 628> 706 101<239 270.5 498.5 543.5>
VStem: 84 134<0 449 0 449 550 622> 338 133<0 449 0 449 550 622> 628 133<0 449 449 449>
LayerCount: 2
Fore
SplineSet
471 622 m 1
 471 550 l 1
 761 550 l 1
 761 0 l 1
 628 0 l 1
 628 449 l 1
 471 449 l 1
 471 0 l 1
 338 0 l 1
 338 449 l 1
 218 449 l 1
 218 0 l 1
 84 0 l 1
 84 449 l 1
 18 449 l 1
 18 550 l 1
 84 550 l 1
 84 622 l 2
 84 729 129 807 257 807 c 0
 302 807 360 785 395 768 c 1
 423 793 461 807 517 807 c 0
 626 807 755 707 755 707 c 1
 678 630 l 1
 678 630 569 706 518 706 c 0
 479 706 472 669 471 622 c 1
218 622 m 1
 218 550 l 1
 338 550 l 1
 338 622 l 2
 338 640 339 659 342 676 c 1
 322 687 284 706 257 706 c 0
 221 706 219 669 218 622 c 1
EndSplineSet
Ligature2: "'liga' Standard Ligatures in Latin lookup 2 subtable" f f i
EndChar

StartChar: f_f_l
Encoding: 64260 64260 150
Width: 893
Flags: MW
HStem: -13 21G 16 20G 449 101<19 86 19 86 219 339 473 624> 706 101<240.5 271.5 494 531>
VStem: 86 133<0 449 0 449 550 622> 339 134<0 449 0 449 550 622> 638 134<154 803>
LayerCount: 2
Fore
SplineSet
638 803 m 1
 772 803 l 1
 772 154 l 2
 772 135 772 109 776 105 c 0
 786 94 810 91 845 91 c 1
 840 -11 l 1
 796 -11 713 -7 680 26 c 0
 638 67 638 118 638 154 c 2
 638 803 l 1
473 622 m 1
 473 550 l 1
 624 550 l 1
 624 449 l 1
 473 449 l 1
 473 0 l 1
 339 0 l 1
 339 449 l 1
 219 449 l 1
 219 0 l 1
 86 0 l 1
 86 449 l 1
 19 449 l 1
 19 550 l 1
 86 550 l 1
 86 622 l 2
 86 729 130 807 259 807 c 0
 307 807 358 787 392 769 c 1
 420 791 460 807 512 807 c 0
 557 807 613 785 655 764 c 1
 655 640 l 1
 655 640 550 706 512 706 c 0
 476 706 474 669 473 622 c 1
219 622 m 1
 219 550 l 1
 339 550 l 1
 339 622 l 2
 339 640 340 657 344 675 c 1
 323 687 284 706 259 706 c 0
 222 706 220 669 219 622 c 1
EndSplineSet
Ligature2: "'liga' Standard Ligatures in Latin lookup 2 subtable" f f l
EndChar

StartChar: Circumflex
Encoding: 65548 -1 179
Width: 501
Flags: MW
HStem: 580 21G 737 20G
LayerCount: 2
Fore
SplineSet
199 949 m 1
 291 949 l 1
 449 803 l 1
 323 803 l 1
 245 880 l 1
 167 803 l 1
 42 803 l 1
 199 949 l 1
EndSplineSet
EndChar

StartChar: eight.lnum
Encoding: 65545 -1 146
Width: 587
Flags: MW
HStem: 655 96<263 305.5>
VStem: 44 132<171 171> 62 133<554.5 609.5 554.5 644.5> 373 134<547.5 609.5> 391 134<127 195>
LayerCount: 2
Fore
SplineSet
507 580 m 0xb0
 507 488 431 419 373 380 c 1xd0
 454 321 525 255 525 171 c 0
 525 -23 298 -14 284 -14 c 0
 271 -14 44 -21 44 171 c 1xc8
 45 263 117 339 180 383 c 1
 114 439 62 504 62 580 c 0
 62 709 179 751 284 751 c 0
 388 751 507 709 507 580 c 0xb0
391 171 m 0xc8
 391 219 336 268 266 320 c 1
 225 289 183 236 176 170 c 1
 179 87 278 87 284 87 c 0
 290 87 391 83 391 171 c 0xc8
195 580 m 0xb0
 195 529 236 486 284 446 c 1
 319 470 373 515 373 580 c 0
 373 639 327 655 284 655 c 0
 242 655 195 639 195 580 c 0xb0
299 435 m 1
 268 437 l 1
 272 439 278 442 284 446 c 1
 299 435 l 1
EndSplineSet
EndChar

StartChar: ffi
Encoding: 65549 -1 250
Width: 1062
Flags: MW
HStem: -1 21G 626 130
VStem: 853 134<0 449 449 449>
LayerCount: 2
Fore
SplineSet
719 622 m 1
 719 550 l 1
 987 550 l 1
 987 0 l 1
 853 0 l 1
 853 449 l 1
 719 449 l 1
 719 0 l 1
 585 0 l 1
 585 449 l 1
 466 449 l 1
 466 0 l 1
 331 0 l 1
 331 449 l 1
 212 449 l 1
 212 0 l 1
 78 0 l 1
 78 449 l 1
 12 449 l 1
 12 550 l 1
 78 550 l 1
 78 622 l 2
 78 729 123 807 251 807 c 0
 299 807 350 787 384 769 c 1
 410 792 447 806 497 807 c 1
 504 807 l 2
 510 807 516 806 522 806 c 0
 523 806 525 805 526 805 c 0
 568 801 609 784 638 769 c 1
 665 791 706 807 758 807 c 0
 844 807 955 732 955 732 c 1
 878 655 l 1
 878 655 796 706 758 706 c 0
 721 706 720 669 719 622 c 1
212 622 m 1
 212 550 l 1
 331 550 l 1
 331 622 l 2
 331 641 332 659 335 676 c 1
 314 688 276 706 251 706 c 0
 215 706 213 669 212 622 c 1
466 622 m 1
 466 550 l 1
 585 550 l 1
 585 622 l 2
 585 640 586 657 590 675 c 1
 563 689 527 706 505 706 c 2
 504 706 l 1
 468 705 467 668 466 622 c 1
EndSplineSet
EndChar

StartChar: five.lnum
Encoding: 65542 -1 143
Width: 601
Flags: MW
HStem: -14 105<238.5 310 238.5 349.5> 404 104<267.5 325.5> 631 106<207 207 207 486>
VStem: 69 138<498 631 498 737 498 737> 407 132<211.5 306>
LayerCount: 2
Fore
SplineSet
207 631 m 1
 207 498 l 1
 227 503 252 508 283 508 c 0
 451 508 539 411 539 280 c 0
 539 70 426 -14 273 -14 c 0
 135 -14 46 84 46 84 c 1
 120 174 l 1
 120 174 204 91 273 91 c 0
 347 91 407 145 407 278 c 0
 407 334 368 404 283 404 c 0
 247 404 211 398 171 370 c 1
 69 370 l 1
 69 737 l 1
 486 737 l 1
 486 631 l 1
 207 631 l 1
EndSplineSet
EndChar

StartChar: fj
Encoding: 65547 -1 151
Width: 585
Flags: MW
HStem: -259 21G 16 20G 449 101<13 80 13 80 214 370> 706 101<240.5 285.5>
VStem: 80 134<0 449 0 449 550 622> 370 134<-22 449 449 449>
LayerCount: 2
Fore
SplineSet
214 622 m 1
 214 550 l 1
 504 550 l 1
 504 -22 l 2
 504 -147 405 -239 327 -267 c 1
 291 -152 l 1
 330 -147 370 -88 370 -22 c 2
 370 449 l 1
 214 449 l 1
 214 0 l 1
 80 0 l 1
 80 449 l 1
 13 449 l 1
 13 550 l 1
 80 550 l 1
 80 622 l 2
 80 729 132 807 259 807 c 0
 368 807 497 707 497 707 c 1
 420 630 l 1
 420 630 311 706 260 706 c 0
 221 706 215 669 214 622 c 1
EndSplineSet
Ligature2: "'liga' Standard Ligatures in Latin lookup 2 subtable" f j
EndChar

StartChar: four.lnum
Encoding: 65541 -1 142
Width: 626
Flags: MW
HStem: -1 21G 172 107<161 196 196 357 497 595> 717 20G<395 497 497 497>
VStem: 357 140<0 172 0 172 279 497 497 497>
LayerCount: 2
Fore
SplineSet
595 279 m 1
 595 172 l 1
 497 172 l 1
 497 0 l 1
 357 0 l 1
 357 172 l 1
 17 172 l 1
 17 237 l 1
 395 737 l 1
 497 737 l 1
 497 279 l 1
 595 279 l 1
357 497 m 1
 196 279 l 1
 357 279 l 1
 357 497 l 1
161 279 m 1
 196 279 l 1
 182 260 l 1
 169 246 l 1
 143 275 l 1
 161 279 l 1
EndSplineSet
EndChar

StartChar: nine.lnum
Encoding: 65546 -1 147
Width: 613
Flags: MW
HStem: -14 109<229 302.5 229 342.5> 270 105<239.5 284 239.5 286.5> 647 104<243.5 317>
VStem: 40 134<451.5 525 451.5 544.5> 421 130
LayerCount: 2
Fore
SplineSet
263 270 m 0
 144 270 40 329 40 498 c 0
 40 591 99 751 286 751 c 0
 454 751 551 624 551 398 c 0
 551 177 427 -14 258 -14 c 0
 163 -14 81 50 63 63 c 1
 144 147 l 1
 144 147 204 95 254 95 c 0
 351 95 398 220 414 330 c 1
 364 284 310 270 263 270 c 0
286 647 m 0
 201 647 174 552 174 498 c 0
 174 405 216 375 263 375 c 0
 305 375 359 404 410 511 c 1
 393 600 348 647 286 647 c 0
EndSplineSet
EndChar

StartChar: one.lnum
Encoding: 65538 -1 139
Width: 368
Flags: MW
HStem: -1 21G 717 20G<176 299 299 299>
VStem: 160 139<0 577 577 577>
LayerCount: 2
Fore
SplineSet
299 0 m 1
 160 0 l 1
 160 577 l 1
 102 528 l 1
 21 620 l 1
 176 737 l 1
 299 737 l 1
 299 0 l 1
EndSplineSet
EndChar

StartChar: seven.lnum
Encoding: 65544 -1 145
Width: 511
Flags: MW
HStem: -7 21G 624 113<25 485 25 324>
LayerCount: 2
Fore
SplineSet
25 624 m 1
 25 737 l 1
 485 737 l 1
 485 662 l 1
 409 502 162 33 61 -11 c 1
 -21 64 l 1
 42 102 230 435 324 624 c 1
 25 624 l 1
EndSplineSet
EndChar

StartChar: six.lnum
Encoding: 65543 -1 144
Width: 613
Flags: MW
HStem: -14 104<277.5 351 277.5 402> 362 105<310.5 355> 642 109<291.5 365.5>
VStem: 44 130 421 133<212 285.5>
LayerCount: 2
Fore
SplineSet
331 467 m 0
 451 467 554 408 554 239 c 0
 554 146 496 -14 308 -14 c 0
 140 -14 44 113 44 340 c 0
 44 560 167 751 337 751 c 0
 431 751 513 687 531 674 c 1
 451 590 l 1
 451 590 391 642 340 642 c 0
 243 642 196 517 180 407 c 1
 231 453 284 467 331 467 c 0
308 90 m 0
 394 90 421 185 421 239 c 0
 421 332 379 362 331 362 c 0
 290 362 236 333 184 226 c 1
 202 137 247 90 308 90 c 0
EndSplineSet
EndChar

StartChar: three.lnum
Encoding: 65540 -1 141
Width: 548
Flags: MW
HStem: -14 110<197 229 196 258> 642 109<193.5 240.5>
VStem: 279 133<561.5 603> 360 133<214.5 277 177 301.5>
LayerCount: 2
Fore
SplineSet
114 556 m 1xe0
 33 636 l 1
 33 636 93 751 226 751 c 0
 326 751 412 683 412 586 c 0xe0
 412 537 382 494 346 461 c 1
 427 435 490 366 493 277 c 1
 493 77 319 -14 197 -14 c 1
 95 -15 9 61 9 61 c 1
 92 138 l 1
 92 138 141 94 196 96 c 1
 262 96 360 152 360 277 c 0xd0
 360 326 321 372 275 372 c 0
 226 372 177 357 159 352 c 1
 161 352 l 1
 153 349 115 349 115 349 c 1
 115 441 l 1
 202 473 279 517 279 586 c 0
 279 620 254 642 227 642 c 0
 160 642 114 556 114 556 c 1xe0
EndSplineSet
EndChar

StartChar: two.lnum
Encoding: 65539 -1 140
Width: 541
Flags: MW
HStem: 0 107<211 490 211 490> 644 107<255 274.5>
VStem: 339 134<506 586>
LayerCount: 2
Fore
SplineSet
143 561 m 1
 99 557 l 1
 99 557 40 615 40 623 c 1
 70 674 136 750 255 751 c 1
 378 751 473 681 473 559 c 0
 473 453 318 243 211 107 c 1
 490 107 l 1
 490 0 l 1
 29 0 l 1
 29 81 l 1
 29 81 339 430 339 557 c 0
 339 615 295 644 254 644 c 0
 184 643 143 561 143 561 c 1
EndSplineSet
EndChar

StartChar: zero.lnum
Encoding: 65537 -1 138
Width: 682
Flags: MW
HStem: -14 111<292 372 292 407.5> 644 107<290 375>
VStem: 41 138<271 467 271 514> 482 138<271 467>
LayerCount: 2
Fore
SplineSet
41 369 m 0
 41 659 182 751 332 751 c 0
 483 751 620 659 620 369 c 0
 620 78 483 -14 332 -14 c 0
 182 -14 41 78 41 369 c 0
482 369 m 0
 482 565 418 644 332 644 c 0
 248 644 179 565 179 369 c 0
 179 173 252 97 332 97 c 0
 412 97 482 173 482 369 c 0
EndSplineSet
EndChar
